<svg width="122" height="107" viewBox="0 0 122 107" fill="none" xmlns="http://www.w3.org/2000/svg">
<circle cx="60.5" cy="56.5" r="50.5" fill="#C0E081"/>
<path d="M67.4131 97.2019C67.1524 97.2019 66.8959 97.1723 66.6478 97.1175C64.8776 96.7253 58.3476 94.9203 58.07 94.8444C46.3092 90.9392 42.0035 79.7297 41.726 78.9664C37.0881 68.7901 37.702 59.9633 39.035 54.3502C40.3216 48.9436 42.4492 45.4644 42.9917 44.642C42.6931 37.9323 42.6132 21.0716 42.6132 20.8987V20.8524C43.7191 4.12664 57.4898 2.63795 62.0141 2.14874C62.3968 2.10657 62.7163 2.07283 62.9602 2.03488L63.0149 2.02644C65.1551 1.71015 68.0858 1.26733 77.0042 1.26733C81.2258 1.26733 86.4986 1.36855 92.6797 1.56254C113.99 2.24152 115.533 14.5475 116.117 19.1781C116.151 19.4353 116.18 19.6673 116.21 19.8697C116.588 22.476 116.311 32.8041 116.126 39.6403C116.058 42.1285 115.995 44.486 116.012 44.9077C116.142 45.2661 116.937 46.7928 117.66 48.1212C121.617 55.531 121.848 64.4294 118.379 76.1282C115.146 87.0509 108.237 91.1627 104.529 93.3726C103.108 94.216 93.487 97.1302 91.6621 97.1302C89.3369 97.1302 87.9493 96.3289 87.2555 92.1116C86.4776 87.3672 89.3579 86.5237 89.4798 86.49L89.5387 86.4773C96.6027 85.2543 102.485 80.6997 102.935 80.3454C108.027 75.1076 110.428 69.7601 110.062 64.4547C109.579 57.4372 104.331 52.5915 103.192 51.6174C96.2201 53.047 88.5548 53.7724 80.4059 53.7724C67.5687 53.7724 57.4519 51.9463 55.7069 51.6089C53.6718 53.0681 49.6899 57.3022 49.0592 62.266C48.6639 65.391 48.4747 73.3363 55.2654 79.6454C59.4366 83.521 63.7255 84.7145 66.8538 85.5875C67.9639 85.8954 68.9226 86.1653 69.6374 86.4984C71.6221 87.4305 72.2402 90.2096 71.3866 94.3257C71.067 95.8566 69.2085 97.2019 67.4131 97.2019Z" fill="white"/>
<path d="M77.0029 1.89872C80.9091 1.89872 85.9759 1.98307 92.6573 2.19393C114.648 2.894 115.035 16.2206 115.578 19.9613C116.12 23.702 115.258 44.569 115.384 45.0371C115.51 45.5052 117.1 48.4236 117.1 48.4236C121.115 55.943 121.023 64.9595 117.768 75.9497C114.644 86.4928 108.005 90.5625 104.199 92.8272C102.888 93.6074 93.4184 96.4962 91.6524 96.4962C89.8863 96.4962 88.5618 96.2432 87.868 92.0048C87.1742 87.7665 89.6383 87.0959 89.6383 87.0959C97.2111 85.7843 103.35 80.808 103.35 80.808C119.934 63.7829 103.35 50.9244 103.35 50.9244C95.4282 52.5776 87.477 53.1258 80.3961 53.1258C66.2344 53.1258 55.5542 50.9244 55.5542 50.9244C53.6452 52.198 49.1209 56.6683 48.4229 62.1761C47.7249 67.6838 49.0158 74.7014 54.8268 80.0995C60.642 85.4976 66.8315 85.8771 69.3585 87.0622C71.8856 88.2472 71.0279 92.8946 70.7587 94.1893C70.5191 95.3322 68.9843 96.5595 67.4033 96.5595C67.1931 96.5595 66.9828 96.5384 66.7768 96.492C65.0024 96.0956 58.2285 94.2273 58.2285 94.2273C46.4971 90.3306 42.3007 78.7204 42.3007 78.7204C33.4412 59.3168 43.621 44.822 43.621 44.822C43.3099 38.1967 43.2342 20.8975 43.2342 20.8975C44.4031 3.28621 59.944 3.13017 63.0514 2.66205C65.2168 2.33732 68.0593 1.89872 77.0029 1.89872ZM77.0029 0.633545C68.0382 0.633545 65.0823 1.08058 62.921 1.4053L62.8664 1.41374C62.6435 1.44748 62.3197 1.48122 61.9455 1.52339C59.6791 1.76799 54.9571 2.27828 50.7061 4.86768C45.3997 8.10232 42.4647 13.4667 41.977 20.8174L41.9727 20.8638V20.9102C41.9727 21.0788 42.0526 37.6232 42.3428 44.4762C41.6448 45.5812 39.6433 49.0351 38.4113 54.2097C37.0573 59.9156 36.4308 68.8815 41.1318 79.2138C41.4976 80.1923 45.9379 91.4903 57.829 95.4419L57.8584 95.4503L57.8879 95.4587C58.1654 95.5347 64.708 97.3439 66.4951 97.7403C66.7894 97.8035 67.0922 97.8373 67.3991 97.8373C69.4721 97.8373 71.6165 96.26 71.9907 94.4593C72.9116 90.0269 72.1673 86.9989 69.8926 85.9277C69.1315 85.5693 68.1476 85.2951 67.0123 84.9788C63.9428 84.1227 59.7422 82.9503 55.6846 79.1801C49.1041 73.0693 49.2891 65.3728 49.6717 62.3448C50.2562 57.748 53.8429 53.8048 55.8443 52.2782C58.2201 52.721 68.0635 54.4037 80.3919 54.4037C88.4651 54.4037 96.0674 53.6952 102.997 52.2993C104.422 53.5729 108.989 58.1233 109.422 64.5125C109.767 69.6153 107.437 74.7857 102.501 79.876C101.895 80.3483 96.2061 84.6836 89.4196 85.856L89.3607 85.8645L89.3019 85.8813C89.1547 85.9193 85.753 86.9146 86.6192 92.2157C87.3803 96.8589 89.037 97.7656 91.6481 97.7656C93.7253 97.7656 103.48 94.7292 104.839 93.9194C108.623 91.6674 115.666 87.4755 118.975 76.3124C122.49 64.4408 122.246 55.3905 118.21 47.829C117.575 46.6566 116.835 45.2438 116.633 44.7757C116.625 44.1642 116.683 41.9712 116.747 39.6601C116.982 30.9472 117.18 22.2386 116.822 19.7799C116.793 19.5817 116.763 19.354 116.734 19.1009C116.44 16.7561 115.893 12.3955 112.613 8.48609C108.657 3.77119 101.954 1.22818 92.6951 0.932971C86.5099 0.734759 81.2329 0.633545 77.0029 0.633545Z" fill="black"/>
<path d="M103.211 50.9707C103.897 50.84 104.616 50.6586 105.309 50.4646C106.012 50.2664 106.705 50.0471 107.391 49.7983C108.08 49.5537 108.757 49.2838 109.426 48.9885C110.099 48.6976 110.75 48.3644 111.398 48.0186L111.545 48.2547C110.931 48.6722 110.309 49.0855 109.661 49.4567C109.018 49.832 108.358 50.1821 107.685 50.511C107.012 50.84 106.331 51.1436 105.633 51.4262C104.935 51.7087 104.241 51.9702 103.497 52.2022L103.211 50.9707Z" fill="black"/>
<path d="M55.4575 52.215C54.6712 52.0294 53.9438 51.8059 53.2122 51.5486C52.4847 51.2914 51.7657 51.0004 51.0677 50.6756C50.3655 50.3551 49.6843 49.9924 49.0242 49.596C48.3598 49.2037 47.7375 48.7482 47.1362 48.2759L47.3296 48.0144C47.9646 48.4151 48.6079 48.7904 49.2891 49.1025C49.9661 49.4188 50.6556 49.7014 51.362 49.9376C52.0684 50.178 52.7833 50.3846 53.5023 50.5618C54.2171 50.7347 54.9656 50.8781 55.6636 50.9708L55.4575 52.215Z" fill="black"/>
<path d="M42.8011 25.9792C42.8011 25.9792 45.0969 28.4211 53.3131 29.9097C61.5292 31.3984 89.1631 33.3848 107.416 29.5133C107.416 29.5133 114.119 27.9656 116.213 25.9792" stroke="black" stroke-width="3" stroke-miterlimit="10"/>
<path d="M43.0407 28.1677C43.0407 28.1677 45.0969 30.2511 53.3131 31.7441C61.5292 33.2328 89.1631 35.2192 107.416 31.3476C107.416 31.3476 113.803 30.1541 115.893 28.1719" stroke="black" stroke-miterlimit="10"/>
<path d="M54.9319 6.1411C53.5822 6.90022 52.3249 7.83224 51.1728 8.86548C50.0249 9.90294 48.9863 11.0627 48.137 12.3448C47.2876 13.6268 46.6401 15.0312 46.27 16.503L46.0598 17.6164C45.9967 17.9749 45.9841 18.384 45.9463 18.7677C45.8874 19.5353 45.8159 20.3408 45.8033 21.0662H44.9623C45.0044 20.2269 45.1095 19.4805 45.1978 18.6918C45.2525 18.2996 45.2777 17.9243 45.3576 17.5152L45.6267 16.3343C46.0766 14.7908 46.8125 13.3527 47.7333 12.0664C48.6584 10.7759 49.76 9.63725 50.9668 8.62931C52.1736 7.62559 53.4728 6.73574 54.8688 6.0188L54.9319 6.1411Z" fill="black"/>
<path d="M114.32 24.748C112.651 25.6673 110.872 26.3505 109.064 26.9241C107.252 27.5018 105.402 27.9362 103.535 28.2736C103.068 28.3706 102.602 28.4422 102.131 28.5097C101.66 28.5772 101.193 28.6573 100.722 28.7122C99.776 28.8134 98.8341 28.9272 97.888 28.9736C95.9959 29.1128 94.0953 29.0748 92.2074 28.9652L92.2116 28.7754C94.0953 28.6868 95.9707 28.5941 97.8376 28.3621C99.7045 28.1681 101.559 27.8729 103.396 27.5145C105.238 27.1687 107.059 26.7132 108.871 26.2367C110.683 25.7559 112.487 25.233 114.287 24.6594L114.32 24.748Z" fill="black"/>
<path d="M113.421 44.7039C113.404 43.7761 113.412 42.8483 113.425 41.9205C113.433 40.9927 113.471 40.0691 113.492 39.1413L113.614 36.3621C113.669 35.4385 113.723 34.5107 113.812 33.5872L114.076 33.5956C114.098 34.5234 114.089 35.4512 114.076 36.379L114.001 39.1582C113.955 40.086 113.929 41.0096 113.87 41.9374C113.816 42.8609 113.761 43.7887 113.677 44.7123L113.421 44.7039Z" fill="black"/>
<path d="M62.1263 15.1872C63.6274 15.4108 65.1327 15.6174 66.6464 15.7692L68.9128 16.0054L71.1834 16.1868C74.2109 16.4103 77.2467 16.5284 80.2784 16.5284C81.7963 16.5579 83.31 16.4862 84.828 16.4567C85.5848 16.4271 86.3417 16.3723 87.0986 16.3344L88.2338 16.2753L89.3691 16.1783L91.6397 15.9801L93.8977 15.6933L95.0288 15.5584L96.1557 15.3728C96.9041 15.2463 97.6568 15.1282 98.4136 15.0186L98.4599 15.2126C95.5039 15.9801 92.4975 16.6211 89.4532 16.9501L88.3137 17.1019L87.17 17.1989C86.4048 17.258 85.6437 17.3297 84.8784 17.3803C83.3479 17.4477 81.8173 17.5237 80.2868 17.5152C77.2215 17.5237 74.1562 17.3929 71.1119 17.0555L68.8329 16.7814L66.5624 16.4525C65.0528 16.1868 63.5517 15.9169 62.0632 15.5289L62.1263 15.1872Z" fill="black"/>
<path d="M77.4864 6.76221C77.7177 6.7833 77.9531 6.82126 78.1844 6.90141C78.3021 6.93937 78.4199 6.98999 78.5418 7.06592C78.6596 7.14185 78.7899 7.24309 78.8782 7.43291C78.9707 7.62695 78.9287 7.89692 78.8277 8.06143C78.731 8.22172 78.6133 8.33139 78.4998 8.41998C78.2727 8.59714 78.0414 8.69416 77.8144 8.79118C76.8977 9.14973 75.9643 9.24675 75.0308 9.26785C74.0973 9.26785 73.1639 9.17926 72.243 8.85868C72.0118 8.77009 71.7805 8.67729 71.5534 8.53387L71.381 8.41154C71.3222 8.36092 71.2675 8.3103 71.2128 8.25547C71.1077 8.1247 70.9774 7.96863 70.9732 7.71553C70.9606 7.47509 71.0993 7.27683 71.2128 7.1756C71.3348 7.06592 71.4525 6.99843 71.5745 6.94781C71.8141 6.84657 72.0454 6.80017 72.2809 6.77064L72.3734 7.07858C72.18 7.18403 71.9907 7.29371 71.8436 7.41604C71.7721 7.47931 71.7048 7.54258 71.6754 7.59742C71.6375 7.65648 71.6544 7.68178 71.6754 7.66491C71.6754 7.64382 71.7048 7.67335 71.7469 7.70288L71.8394 7.75771L71.9529 7.80833C72.1211 7.87582 72.3103 7.93066 72.5079 7.97706C72.9074 8.05721 73.3279 8.1247 73.7525 8.15001C74.1772 8.18797 74.6061 8.20485 75.0308 8.20063C75.8844 8.20485 76.7548 8.14579 77.5453 7.96019C77.7387 7.91379 77.9321 7.85051 78.0793 7.7788C78.155 7.74506 78.2096 7.70288 78.2391 7.67757C78.2601 7.65226 78.2643 7.68178 78.2811 7.66491C78.3021 7.60586 78.1466 7.44134 77.9826 7.33589C77.8144 7.21778 77.621 7.11654 77.4233 7.0153L77.4864 6.76221Z" fill="black"/>
<path d="M86.6444 6.76147C86.8757 6.78257 87.1112 6.82053 87.3424 6.90068C87.4602 6.93864 87.5779 6.98926 87.6998 7.06519C87.8176 7.14112 87.9479 7.24236 88.0362 7.43218C88.1287 7.62622 88.0867 7.89618 87.9858 8.06069C87.8891 8.22099 87.7713 8.33066 87.6578 8.41925C87.4307 8.59641 87.1995 8.69343 86.9724 8.79045C86.0558 9.149 85.1223 9.24602 84.1888 9.26711C83.2554 9.26711 82.3219 9.17853 81.4011 8.85794C81.1698 8.76936 80.9385 8.67656 80.7115 8.53314L80.5391 8.41081C80.4802 8.36019 80.4256 8.30957 80.3709 8.25473C80.2658 8.12397 80.1354 7.96789 80.1312 7.7148C80.1186 7.47436 80.2574 7.2761 80.3709 7.17486C80.4928 7.06519 80.6106 6.9977 80.7325 6.94708C80.9722 6.84584 81.2034 6.79944 81.4389 6.76991L81.5314 7.07784C81.338 7.1833 81.1488 7.29297 81.0016 7.4153C80.9301 7.47858 80.8629 7.54185 80.8334 7.59669C80.7956 7.65574 80.8124 7.68105 80.8334 7.66418C80.8334 7.64309 80.8629 7.67262 80.9049 7.70214L80.9974 7.75698L81.1109 7.8076C81.2791 7.87509 81.4683 7.92993 81.666 7.97633C82.0654 8.05648 82.4859 8.12397 82.9106 8.14928C83.3353 8.18724 83.7642 8.20412 84.1888 8.1999C85.0424 8.20412 85.9128 8.14506 86.7033 7.95946C86.8967 7.91306 87.0901 7.84978 87.2373 7.77807C87.313 7.74433 87.3677 7.70214 87.3971 7.67683C87.4181 7.65153 87.4223 7.68105 87.4391 7.66418C87.4602 7.60512 87.3046 7.44061 87.1406 7.33516C86.9724 7.21705 86.779 7.11581 86.5814 7.01457L86.6444 6.76147Z" fill="black"/>
<path d="M80.8755 7.17432C80.8755 7.17432 83.9744 8.08153 87.3508 7.17432C87.3508 7.17432 88.4483 8.06465 86.8378 8.37268C85.2274 8.68071 81.2034 8.39377 80.7325 8.06043C80.2616 7.72286 80.8755 7.17432 80.8755 7.17432Z" fill="black"/>
<path d="M71.7647 7.17529C71.7647 7.17529 74.8636 8.0825 78.2401 7.17529C78.2401 7.17529 79.3375 8.06562 77.7271 8.37365C76.1166 8.68168 72.0927 8.39475 71.6217 8.0614C71.1508 7.72384 71.7647 7.17529 71.7647 7.17529Z" fill="black"/>
<path d="M116.805 46.6695C116.284 47.1376 115.754 47.5635 115.203 47.9768C114.653 48.3901 114.089 48.7781 113.509 49.145C112.933 49.5161 112.336 49.8535 111.726 50.1698C111.121 50.4903 110.49 50.756 109.851 51.0048L109.8 50.8741C110.418 50.5999 111.028 50.3047 111.612 49.9631C112.197 49.6258 112.773 49.2631 113.324 48.8709C113.879 48.4829 114.417 48.0738 114.938 47.6436C115.46 47.2135 115.969 46.7622 116.444 46.2983L116.805 46.6695Z" fill="black"/>
<g clip-path="url(#clip0)">
<path d="M19.793 65.7607C16.0868 68.4934 13.9015 72.8403 12.9065 77.39C11.3003 85.1508 13.3799 94.3504 18.6258 101.621C15.8747 99.8551 13.0836 98.1391 10.3518 96.4702C9.50052 95.9608 8.99811 97.2054 9.9087 97.7617C13.5111 100.038 17.0941 102.216 20.6966 104.492C21.2705 104.864 21.71 104.308 21.6725 103.868C21.2363 99.6638 20.8194 95.557 20.3832 91.3528C20.2488 90.4253 18.8587 90.4749 18.8939 91.4059C19.2356 94.6322 19.5773 97.8584 19.879 101.135C15.0667 94.5355 13.2002 86.4079 14.2083 79.159C14.765 74.9194 16.5907 71.027 19.5232 68.1746C20.8998 66.8007 22.6918 65.7554 24.6799 65.1938C26.3896 64.7403 28.6938 64.5109 30.3552 65.8255C31.1265 66.4359 31.9656 65.3755 31.1942 64.7651C27.6547 61.8002 22.5427 63.749 19.793 65.7607Z" fill="#81C103"/>
</g>
<defs>
<clipPath id="clip0">
<rect width="39.2125" height="25.8012" fill="white" transform="translate(0 89.9207) rotate(-51.6458)"/>
</clipPath>
</defs>
</svg>
