<svg width="24" height="20" viewBox="0 0 24 20" fill="none" xmlns="http://www.w3.org/2000/svg">
<path d="M24 2.55941C23.1174 2.9505 22.1693 3.21475 21.1726 3.33419C22.201 2.7188 22.9704 1.75025 23.3373 0.609269C22.371 1.1832 21.3135 1.58719 20.2107 1.80367C19.4691 1.01184 18.4868 0.487003 17.4164 0.310642C16.3459 0.134282 15.2472 0.316263 14.2907 0.828333C13.3343 1.3404 12.5737 2.15391 12.127 3.14256C11.6803 4.13121 11.5725 5.23968 11.8203 6.29587C9.86244 6.19757 7.94711 5.68868 6.19863 4.80225C4.45016 3.91581 2.90761 2.67163 1.6711 1.15045C1.2483 1.87977 1.0052 2.72536 1.0052 3.62592C1.00473 4.43662 1.20437 5.23491 1.58641 5.94995C1.96846 6.665 2.52109 7.27468 3.19528 7.72492C2.4134 7.70004 1.64877 7.48877 0.965031 7.1087V7.17212C0.964952 8.30916 1.35827 9.41122 2.07823 10.2913C2.7982 11.1714 3.80048 11.7752 4.915 12.0004C4.18968 12.1967 3.42923 12.2257 2.69109 12.085C3.00555 13.0634 3.61807 13.9189 4.44291 14.5319C5.26776 15.1448 6.26363 15.4845 7.29111 15.5033C5.5469 16.8725 3.39282 17.6153 1.17537 17.612C0.782575 17.6121 0.39011 17.5892 0 17.5433C2.25083 18.9905 4.87097 19.7586 7.5469 19.7556C16.6053 19.7556 21.5573 12.2531 21.5573 5.74624C21.5573 5.53484 21.552 5.32133 21.5425 5.10993C22.5057 4.41335 23.3372 3.55076 23.9979 2.56259L24 2.55941Z" fill="#81C103"/>
</svg>
