<svg width="1440" height="221" viewBox="0 0 1440 221" fill="none" xmlns="http://www.w3.org/2000/svg">
<path d="M1284.29 27.4825C1273.32 26.7185 1262.46 27.2915 1251.66 29.1742C1219.42 34.8223 1190.37 51.3574 1162.3 67.3195L1160.63 68.2745C1159.46 68.9294 1158.29 69.6115 1157.11 70.2937C1134.31 83.3089 1110.74 96.7608 1084.77 96.3788C1062.3 96.0513 1042.33 85.2462 1023.02 74.7958C1010.77 68.1654 998.11 61.3167 984.99 57.2511C970.232 52.6944 956.429 52.2033 942.79 55.805C928.551 59.5431 914.448 67.1012 899.609 78.9159C886.816 89.0935 875.304 100.935 863.629 113.187C858.856 118.18 854.164 123.501 849.199 129.149C832.478 148.112 815.156 167.731 793.524 176.981C767.692 188.031 747.124 170.186 732.067 153.406C719.246 139.108 707.735 123.201 696.578 107.811C686.676 94.114 676.419 79.9801 665.262 66.9648C656.833 57.142 646.904 45.9276 635.529 37.2234C624.154 28.492 613.379 23.8535 602.823 23.1168C600.968 22.9803 599.113 22.9803 597.285 23.0895C585.61 23.7989 575.054 29.5562 565.043 40.7433C556.504 50.2387 549.712 62.299 544.175 72.8585C538.637 83.3908 533.236 96.3242 527.508 109.994C517.66 133.515 506.504 160.173 491.883 181.101C475.134 205.058 456.503 217.609 434.953 219.492C404.101 222.166 375.623 199.519 354.264 179.491C341.28 167.321 329.141 153.815 317.384 140.745C303.909 125.765 289.997 110.294 274.748 96.7335C262.146 85.5463 250.007 77.7427 237.568 72.8858C223.493 67.4014 208.954 65.8188 194.332 68.22C172.073 71.8489 151.042 81.7809 130.693 91.3582C120.818 95.9968 110.616 100.826 100.496 104.81C61.8152 120.008 30.7999 121.536 2.89437 109.612C-30.7942 95.1782 -55.8628 65.9007 -80.1131 37.5782C-81.6406 35.7773 -83.1682 34.0037 -84.6958 32.2302L-85.6778 33.1306C-84.1502 34.9042 -82.6226 36.6777 -81.0951 38.4513C-69.12 52.4216 -56.763 66.8557 -43.1512 79.6254C-27.7117 94.0868 -12.8179 104.292 2.37608 110.786C17.7064 117.334 33.9096 119.79 51.9132 118.316C66.9708 117.061 83.0103 113.05 100.932 105.983C111.107 102 121.336 97.17 131.211 92.5042C151.478 82.9542 172.428 73.0768 194.523 69.4751C221.611 65.0548 247.552 74.2774 273.876 97.6885C289.069 111.195 302.981 126.666 316.402 141.591C328.159 154.688 340.325 168.195 353.364 180.419C362.993 189.45 375.95 200.91 390.517 209.26C406.202 218.237 420.768 222.002 435.035 220.774C456.994 218.864 475.952 206.122 492.919 181.837C507.622 160.8 518.806 134.06 528.681 110.458C534.409 96.788 539.783 83.9092 545.293 73.4315C558.223 48.8199 573.471 25.818 597.34 24.3992C623.418 22.8439 645.568 46.0094 664.28 67.838C675.383 80.7986 685.639 94.9326 695.514 108.603C706.671 124.019 718.209 139.954 731.085 154.306C741.259 165.657 750.179 172.942 759.181 177.253C770.911 182.874 782.313 183.202 793.988 178.181C815.892 168.822 833.296 149.067 850.127 129.995C855.091 124.374 859.783 119.053 864.529 114.06C889.789 87.5382 913.139 64.9184 943.063 57.0601C972.96 49.2019 996.938 62.1898 1022.36 75.9418C1041.81 86.4741 1061.91 97.361 1084.69 97.6885C1096.48 97.8522 1108.89 95.1782 1122.66 89.4755C1134.8 84.4549 1146.42 77.8245 1157.66 71.4124C1158.83 70.7302 1160.01 70.0754 1161.18 69.3932L1162.84 68.4382C1190.83 52.5034 1219.77 36.0502 1251.8 30.4293C1323.54 17.8506 1385.16 66.883 1437.29 113.842C1451.04 126.202 1464.7 139.135 1477.93 151.605L1478.72 152.342L1479.62 151.332L1478.83 150.595C1465.6 138.099 1451.91 125.192 1438.16 112.805C1412.17 89.3936 1383.88 65.4641 1353 48.8198C1329.35 36.1593 1306.6 29.0377 1284.29 27.4825Z" fill="#81C103"/>
<path d="M1275.88 25.5183C1264.43 24.727 1253.11 25.4637 1241.84 27.7011C1240.31 28.0012 1238.76 28.3287 1237.23 28.6834C1207.66 35.5594 1180.85 51.4396 1154.93 66.8015L1154.22 67.238C1153.05 67.9202 1151.88 68.6296 1150.7 69.3117C1128.88 82.2997 1106.3 95.7242 1081.53 96.4337C1059.95 97.0612 1040.61 87.8933 1021.9 79.0527C1008.34 72.6406 994.319 66.0102 979.534 63.1179C967.368 60.744 955.911 61.0715 944.509 64.0729C913.466 72.2586 888.589 95.697 866.63 116.352C861.965 120.745 857.382 125.384 852.527 130.322C835.969 147.103 818.838 164.457 797.834 172.206C784.55 177.117 771.565 175.016 758.09 165.794C751.925 161.565 745.515 155.725 738.45 147.949C726.556 134.797 715.7 120.281 705.198 106.229C694.832 92.3681 684.084 78.0159 672.409 65.0552C664.09 55.9145 654.297 45.4641 643.004 37.4694C632.474 30.0204 622.518 26.0094 612.752 25.3273C610.379 25.1635 608.033 25.1908 605.687 25.4091C594.448 26.4733 584.219 32.2578 574.454 43.0629C566.134 52.2582 559.587 63.418 553.777 74.114C548.103 84.5098 542.538 97.1431 536.673 110.486C526.799 132.942 515.587 158.399 501.212 178.536C484.763 201.538 466.65 214.062 445.864 216.818C412.994 221.156 384.216 199.628 362.802 180.419C348.372 167.404 334.897 152.478 321.858 138.044C309.064 123.856 295.807 109.203 281.541 96.1608C261.164 77.5247 241.442 67.1834 221.256 64.5095C214.464 63.609 207.562 63.5272 200.743 64.2912C177.065 66.856 154.397 76.3787 132.466 85.574C123.3 89.4213 113.835 93.3777 104.451 96.7884C96.513 99.6534 89.1752 101.973 82.0556 103.828C52.677 111.55 27.3902 111.468 4.74931 103.583C-21.956 94.36 -43.533 77.17 -61.1547 61.5353C-67.7287 55.6962 -74.1664 49.6661 -80.3858 43.8269C-82.4317 41.9169 -84.4775 39.9797 -86.4961 38.0969L-87.3145 39.0519C-85.2959 40.9347 -83.25 42.8719 -81.2041 44.7819C-74.9847 50.6211 -68.5471 56.6785 -61.9458 62.5176C-44.2423 78.2069 -22.5561 95.506 4.36742 104.783C27.2265 112.75 52.7316 112.832 82.3557 105.056C89.5298 103.173 96.8676 100.854 104.86 97.9617C114.271 94.551 123.764 90.5945 132.929 86.7473C154.779 77.5793 177.393 68.1112 200.879 65.5463C207.59 64.8096 214.409 64.8642 221.12 65.7646C241.033 68.4113 260.537 78.6707 280.75 97.1158C294.989 110.104 308.191 124.756 320.985 138.89C334.051 153.352 347.527 168.304 362.011 181.374C376.196 194.116 388.362 202.875 400.31 208.932C416.24 217.036 431.216 220.01 446.028 218.073C467.169 215.29 485.554 202.602 502.221 179.3C516.678 159.082 527.917 133.542 537.819 111.031C543.684 97.7161 549.221 85.1101 554.868 74.7689C567.743 51.1122 582.828 28.9017 605.823 26.7188C633.483 24.0721 658.252 51.3305 671.536 65.9556C683.157 78.8617 693.877 93.1867 704.243 107.021C714.772 121.073 725.656 135.616 737.577 148.822C744.696 156.68 751.189 162.601 757.435 166.858C771.238 176.299 784.604 178.454 798.243 173.407C819.493 165.548 836.706 148.113 853.373 131.223C858.228 126.311 862.811 121.673 867.448 117.307C889.298 96.7338 914.066 73.4319 944.809 65.3007C956.02 62.3266 967.313 62.0265 979.316 64.373C993.964 67.238 1007.9 73.8412 1021.41 80.226C1040.23 89.1484 1059.7 98.3437 1081.55 97.7161C1106.62 96.9794 1129.35 83.473 1151.3 70.4304C1152.48 69.721 1153.65 69.0389 1154.82 68.3567L1155.53 67.9202C1181.37 52.6129 1208.1 36.7872 1237.5 29.9385C1239.03 29.5838 1240.59 29.2564 1242.09 28.9562C1311.26 15.0951 1371.55 62.6268 1422.64 108.248C1426.68 111.85 1430.71 115.452 1434.72 119.081C1446.92 130.022 1459.55 141.346 1472.18 152.26L1472.23 152.315L1472.91 152.642L1473.43 151.496L1472.89 151.223C1460.28 140.336 1447.71 129.04 1435.52 118.126C1431.51 114.524 1427.47 110.922 1423.43 107.293C1397.87 84.4553 1370.1 61.1533 1340.34 45.3822C1318.11 33.5675 1296.78 26.9917 1275.88 25.5183Z" fill="#81C103"/>
<path d="M1267.29 23.5808C1255.43 22.7622 1243.7 23.6627 1232.02 26.2548C1230.41 26.6095 1228.97 26.9642 1227.57 27.3189C1198.74 34.7406 1172.83 50.7573 1147.76 66.2283C1146.59 66.965 1145.41 67.6744 1144.24 68.4111C1123.37 81.3445 1101.82 94.7418 1078.25 96.5427C1057.58 98.0979 1038.86 90.6217 1020.75 83.391C1007.74 78.1794 994.292 72.8041 980.08 70.7031C968.268 68.9569 957.194 69.5026 946.2 72.4221C917.095 80.144 892.981 100.172 871.731 117.825L869.576 119.626C865.075 123.364 860.629 127.321 855.964 131.468C839.516 146.093 822.494 161.237 802.09 167.485C789.296 171.415 776.803 168.932 763.873 159.927C757.872 155.725 751.789 150.214 744.806 142.546C733.976 130.677 723.911 117.634 714.172 105.028C703.207 90.84 691.886 76.1603 679.502 63.2541C670.827 54.1953 661.28 44.8363 650.451 37.8239C637.684 29.5564 625.791 26.3094 614.062 27.8646C603.259 29.3108 593.357 35.0954 583.81 45.5185C575.654 54.4409 569.162 65.1914 563.324 75.5054C557.487 85.7921 551.786 98.0707 545.757 111.086C525.108 155.725 501.676 206.313 456.694 214.226C421.423 220.42 391.063 198.482 371.286 181.401C355.383 167.595 340.598 151.25 326.304 135.425C314.166 122 301.618 108.139 288.279 95.6422C267.629 76.2967 247.852 65.1914 227.83 61.6443C220.902 60.4164 213.946 60.0072 207.126 60.4164C181.839 61.8353 157.262 70.9487 133.475 79.7893C125.264 82.8453 116.754 86.0104 108.352 88.7935C100.114 91.5221 92.6123 93.7322 85.4109 95.5604C55.3777 103.119 29.5725 103.773 6.57705 97.6068C-20.5647 90.2942 -43.1783 76.133 -61.7002 63.2269C-68.056 58.8066 -74.3027 54.2226 -80.3312 49.8023C-82.9499 47.8923 -85.6504 45.9005 -88.3237 43.9905L-88.9783 44.9728C-86.3324 46.8828 -83.6318 48.8746 -81.0131 50.7846C-74.9574 55.2049 -68.7107 59.7889 -62.3549 64.2364C-43.7512 77.1971 -21.0557 91.413 6.27699 98.7801C29.4634 105.028 55.4322 104.346 85.6564 96.7337C92.8851 94.9055 100.414 92.6954 108.679 89.9395C117.108 87.1564 125.592 83.9913 133.83 80.9353C157.534 72.122 182.03 63.0359 207.153 61.6443C213.891 61.235 220.765 61.6443 227.612 62.8449C247.416 66.3374 267.002 77.3608 287.487 96.5427C300.799 108.985 313.32 122.846 325.431 136.243C339.752 152.096 354.592 168.468 370.522 182.329C384.625 194.471 397.5 203.093 409.939 208.659C425.897 215.808 441.691 218.073 456.858 215.399C477.18 211.825 495.02 199.219 511.332 176.872C525.544 157.444 536.81 133.078 546.766 111.604C552.768 98.6164 558.469 86.3378 564.279 76.1057C577.1 53.404 591.994 31.9848 614.171 29.0379C638.23 25.8182 659.371 43.9905 678.656 64.0727C690.986 76.9243 702.306 91.604 713.245 105.765C722.983 118.398 733.076 131.441 743.933 143.338C750.998 151.059 757.108 156.653 763.191 160.882C776.421 170.105 789.215 172.615 802.363 168.604C823.012 162.274 840.116 147.048 856.674 132.341C861.338 128.194 865.757 124.265 870.258 120.527L872.413 118.726C893.581 101.127 917.558 81.1808 946.446 73.5408C957.275 70.6758 968.214 70.1301 979.889 71.8491C993.992 73.9501 1007.36 79.2981 1020.32 84.4824C1038.54 91.7677 1057.39 99.2985 1078.31 97.7159C1102.15 95.8878 1123.84 82.436 1144.79 69.4207C1145.96 68.684 1147.13 67.9473 1148.3 67.2379C1173.29 51.7942 1199.12 35.8593 1227.79 28.4649C1229.16 28.1102 1230.6 27.7555 1232.21 27.4008C1299.18 12.3937 1355.67 56.2963 1407.83 102.545C1427.09 119.626 1446.05 136.325 1466.07 152.587L1466.2 152.697L1466.99 152.724L1467.05 151.551L1466.61 151.523C1446.67 135.316 1427.77 118.671 1408.57 101.645C1385.27 80.9625 1357.86 57.606 1327.6 41.8349C1306.84 31.0298 1286.88 24.9451 1267.29 23.5808Z" fill="#81C103"/>
<path d="M1258.73 21.562C1246.42 20.6889 1234.28 21.7803 1222.23 24.8363C1220.65 25.2456 1219.23 25.6003 1217.95 25.9823C1189.82 33.977 1164.07 50.594 1141.35 65.2737C1140.15 66.0377 1138.95 66.8289 1137.75 67.6202C1117.89 80.4991 1097.35 93.8145 1075.01 96.734C1055.15 99.2716 1037.8 93.7053 1019.41 87.7843C1007.03 83.8006 994.237 79.6805 980.68 78.3435C969.196 77.1975 958.475 77.9888 947.946 80.7992C920.941 87.9753 898.027 104.565 877.787 119.19C876.041 120.445 874.322 121.7 872.604 122.928C868.348 125.984 863.957 129.34 859.729 132.56C843.307 145.084 826.367 158.045 806.372 162.82C794.07 165.767 782.068 162.902 769.683 154.088C763.9 149.996 758.008 144.62 751.161 137.171C741.341 126.503 732.067 114.879 723.092 103.61C711.581 89.1486 699.66 74.2234 686.621 61.4537C678.52 53.5135 668.781 44.5638 657.897 38.179C645.459 30.8937 633.865 28.3289 622.463 30.3207C612.097 32.1216 602.523 37.9061 593.221 48.0018C585.31 56.5968 578.791 66.9654 572.926 76.9246C566.979 87.0203 561.224 98.8896 555.086 111.441C534.382 153.979 510.923 202.166 467.605 211.688C439.563 217.855 410.839 208.305 379.851 182.466C362.448 167.95 346.299 150.105 330.696 132.806C319.266 120.145 307.455 107.075 295.071 95.1787C274.148 75.0965 254.317 63.2 234.431 58.8342C227.475 57.3063 220.438 56.5695 213.536 56.5968C186.313 56.7878 159.471 65.5738 133.502 74.0869C126.574 76.3516 119.399 78.6982 112.307 80.8538C103.742 83.4732 96.0493 85.5742 88.7933 87.3205C57.969 94.7422 31.7002 96.161 8.43192 91.6589C-18.9281 86.3382 -42.6328 75.1784 -62.2185 64.9462C-68.1651 61.8357 -74.0572 58.616 -79.7583 55.5054C-83.1681 53.65 -86.687 51.74 -90.124 49.8846L-90.6151 50.8668C-87.178 52.7223 -83.6591 54.6323 -80.2494 56.4877C-74.5482 59.5982 -68.6561 62.818 -62.7095 65.9285C-43.0692 76.1879 -19.2554 87.375 8.24097 92.723C31.6456 97.2797 58.0781 95.8609 89.0389 88.3846C96.2948 86.6383 104.015 84.51 112.607 81.8906C119.7 79.7351 126.874 77.3885 133.83 75.0965C159.717 66.6107 186.504 57.852 213.564 57.661C220.41 57.6064 227.366 58.3704 234.24 59.8711C253.908 64.1822 273.603 75.9969 294.361 95.9427C306.718 107.812 318.53 120.882 329.932 133.515C345.563 150.814 361.711 168.714 379.197 183.257C393.381 195.072 406.638 203.312 419.705 208.387C435.908 214.69 452.084 216.136 467.851 212.698C487.409 208.387 504.731 195.863 520.77 174.389C534.764 155.671 546.084 132.396 556.068 111.85C562.178 99.2989 567.934 87.4569 573.853 77.4158C585.774 57.1698 600.368 35.2049 622.654 31.3303C646.332 27.2102 667.036 43.7453 685.885 62.2177C698.869 74.9328 710.763 89.858 722.274 104.292C731.248 115.561 740.55 127.212 750.398 137.908C757.299 145.384 763.246 150.814 769.083 154.962C781.74 163.966 794.015 166.858 806.618 163.857C826.804 159.027 843.853 146.012 860.356 133.406C864.775 130.023 868.949 126.857 873.204 123.801C874.922 122.574 876.641 121.318 878.387 120.063C898.545 105.493 921.377 88.9849 948.192 81.836C958.612 79.0802 969.196 78.2889 980.571 79.4076C994.019 80.7446 1006.79 84.8375 1019.11 88.8212C1036.79 94.4966 1055.09 100.39 1075.17 97.7982C1097.73 94.8513 1118.38 81.4813 1138.35 68.5207C1139.55 67.7294 1140.75 66.9654 1141.95 66.1741C1164.62 51.549 1190.29 34.9593 1218.27 27.0192C1219.55 26.6645 1220.95 26.2825 1222.53 25.8732C1287.29 9.61093 1342.36 52.0401 1393.21 96.8977C1413.78 115.043 1436.12 134.388 1460.12 152.97L1460.34 153.133L1461.24 152.779L1460.88 151.769L1460.53 151.906C1436.61 133.379 1414.38 114.115 1393.89 96.0519C1371.11 75.9696 1344.35 53.268 1315.03 38.2881C1295.58 28.3835 1276.95 22.8172 1258.73 21.562Z" fill="#81C103"/>
<path d="M1250.08 19.4604C1237.37 18.56 1224.85 19.8697 1212.43 23.3623C1210.83 23.8261 1209.52 24.2081 1208.32 24.5628C1180.9 33.1578 1156.49 49.6384 1134.94 64.2089C1133.68 65.0548 1132.46 65.9006 1131.2 66.7465C1112.35 79.5434 1092.87 92.8043 1071.76 96.7607C1052.64 100.308 1035.73 96.2968 1017.81 92.0675C1006.13 89.3117 994.046 86.4467 981.225 85.8464C970.041 85.328 959.703 86.3648 949.637 89.0388C925.059 95.6147 903.592 108.848 884.633 120.526C881.496 122.464 878.55 124.292 875.577 126.093C871.703 128.439 867.721 130.977 863.874 133.405C847.398 143.91 830.35 154.77 810.655 158.017C798.843 159.982 787.332 156.735 775.466 148.14C769.929 144.129 764.227 138.89 757.517 131.714C748.706 122.245 740.25 111.986 732.066 102.054C719.955 87.3471 707.434 72.149 693.713 59.5976C679.147 46.2549 662.153 33.1305 643.276 31.8208C639.212 31.548 635.065 31.7935 630.837 32.7212C609.069 37.469 594.475 58.7245 582.5 78.261C576.417 88.193 570.498 99.7348 564.251 111.932C543.547 152.342 520.088 198.127 478.489 209.068C449.028 216.818 419.541 208.441 388.362 183.447C369.513 168.331 352.109 148.985 335.251 130.295C324.504 118.344 313.374 105.983 301.836 94.6597C280.613 73.7862 260.7 61.1529 241.033 55.9959C233.995 54.1405 226.902 53.0763 219.919 52.7762C190.486 51.5211 161.026 60.0342 132.547 68.2745C127.201 69.8297 121.691 71.4123 116.235 72.9403C107.233 75.4506 99.3771 77.4697 92.1757 79.1342C60.042 86.5558 34.0187 88.6568 10.2867 85.7646C-16.9369 82.4357 -40.9144 74.6593 -62.7642 66.7465C-68.0289 64.8365 -73.239 62.8719 -78.3128 60.9619C-82.7864 59.2702 -87.4237 57.5239 -91.9518 55.8868L-92.2792 56.8418C-87.751 58.5062 -83.141 60.2525 -78.6401 61.9169C-73.5664 63.8269 -68.3562 65.7915 -63.0916 67.7015C-41.1872 75.6143 -17.1552 83.418 10.1503 86.7741C33.9914 89.6937 60.1239 87.5927 92.3666 80.1437C99.5953 78.4793 107.479 76.4329 116.48 73.9499C121.936 72.4492 127.446 70.8393 132.793 69.284C161.217 61.071 190.595 52.5579 219.865 53.8403C226.766 54.1405 233.804 55.2046 240.76 57.0328C260.291 62.1625 280.04 74.7139 301.154 95.4783C312.665 106.775 323.794 119.135 334.542 131.059C351.4 149.777 368.831 169.15 387.762 184.32C402.165 195.862 415.776 203.693 429.361 208.277C445.782 213.789 462.395 214.416 478.707 210.133C520.715 199.082 544.311 153.078 565.097 112.477C571.344 100.281 577.236 88.766 583.319 78.8613C595.185 59.4885 609.615 38.424 631.028 33.7581C654.487 28.6284 675.573 44.3449 693.059 60.4162C706.698 72.9403 719.218 88.1111 731.303 102.791C739.486 112.723 747.97 123.009 756.808 132.505C763.573 139.736 769.301 145.002 774.92 149.067C787.005 157.826 798.734 161.128 810.791 159.108C830.677 155.834 847.808 144.92 864.366 134.36C868.184 131.932 872.167 129.394 876.041 127.048C879.014 125.247 881.987 123.419 885.124 121.481C904.001 109.831 925.414 96.6515 949.855 90.103C959.839 87.429 970.068 86.3921 981.171 86.9379C993.882 87.5381 1005.94 90.4031 1017.59 93.159C1035.62 97.4155 1052.61 101.454 1071.93 97.8521C1093.2 93.8411 1112.79 80.553 1131.72 67.6742C1132.97 66.8283 1134.2 65.9825 1135.46 65.1366C1156.95 50.6206 1181.31 34.1401 1208.59 25.5997C1209.79 25.2177 1211.07 24.8357 1212.68 24.3991C1275.31 6.85445 1328.91 47.8375 1378.42 91.3036C1399.97 110.24 1425.83 132.423 1454.04 153.433L1454.34 153.651L1455.26 152.915L1454.69 152.123L1454.34 152.396C1426.27 131.468 1400.54 109.394 1379.08 90.5395C1356.85 71.0303 1330.77 49.0381 1302.34 34.795C1284.31 25.7088 1266.99 20.6337 1250.08 19.4604Z" fill="#81C103"/>
<path d="M1241.32 17.3052C1228.23 16.3775 1215.35 17.9328 1202.59 21.9165C1201.01 22.4077 1199.81 22.8169 1198.63 23.1989C1173.95 31.7121 1152.26 46.3645 1128.47 63.227C1127.16 64.1547 1125.83 65.1097 1124.52 66.0374C1106.71 78.7253 1088.29 91.8769 1068.49 96.8975C1049.99 101.536 1033.38 99.1076 1015.79 96.5701C1004.93 94.9875 993.692 93.3504 981.771 93.4595C970.86 93.5414 960.903 94.8511 951.329 97.4159C929.615 103.228 910.057 113.296 892.817 122.164C887.88 124.702 883.188 127.103 878.551 129.395C875.277 131.005 871.922 132.696 868.703 134.333C851.927 142.874 834.578 151.687 814.911 153.352C803.59 154.307 792.597 150.705 781.249 142.301C775.957 138.372 770.42 133.297 763.846 126.339C756.044 118.071 748.461 109.149 741.096 100.499C728.357 85.5467 715.209 70.0757 700.779 57.7972C693.496 51.576 683.73 43.8269 672.737 38.8336C660.953 33.4856 649.96 32.2851 639.185 35.1501C618.317 40.689 603.914 61.0169 592.048 79.653C585.801 89.4485 579.773 100.663 573.363 112.505C552.686 150.841 529.226 194.28 489.346 206.531C458.521 215.972 428.27 208.769 396.873 184.484C376.605 168.822 357.92 148.004 339.861 127.867C329.769 116.598 319.321 104.974 308.601 94.1962C298.317 83.8822 288.742 75.6693 279.304 69.0934C268.502 61.5899 258.136 56.3783 247.607 53.1859C240.487 51.0303 233.34 49.5842 226.302 48.9566C225.293 48.8747 224.284 48.7929 223.275 48.711C192.232 46.5282 160.808 54.6047 130.338 62.3811C126.983 63.227 123.546 64.1274 120.136 64.9733C110.261 67.4563 102.651 69.2844 95.5038 70.867C62.3335 78.2341 35.8192 81.0445 12.1144 79.7894C-15.7638 78.2887 -40.4233 73.3773 -63.3097 68.4386C-67.265 67.5654 -71.2203 66.6923 -75.0666 65.8464C-81.4497 64.4003 -87.5327 63.036 -93.7248 61.7263L-93.9158 62.6267C-87.7236 63.9364 -81.6406 65.2734 -75.2302 66.7196C-71.384 67.5654 -67.4287 68.4386 -63.4733 69.3117C-40.5597 74.2504 -15.8457 79.1618 12.0872 80.6625C35.8737 81.945 62.4426 79.1072 95.722 71.7128C102.869 70.1303 110.479 68.3021 120.354 65.8191C123.764 64.9733 127.201 64.0729 130.556 63.227C161.926 55.205 194.36 46.8829 226.221 49.8025C233.177 50.43 240.296 51.8489 247.361 54.0044C266.974 59.98 286.233 72.9407 308.001 94.7965C318.694 105.547 329.141 117.171 339.234 128.44C357.319 148.604 376.032 169.45 396.355 185.167C411.003 196.49 424.969 203.939 439.072 207.977C455.739 212.752 472.761 212.534 489.619 207.35C529.854 195.017 553.395 151.387 574.154 112.914C580.537 101.072 586.565 89.8851 592.812 80.1168C604.596 61.6444 618.862 41.453 639.43 35.9959C662.617 29.8294 683.184 43.8815 700.26 58.452C714.609 70.7033 727.757 86.1469 740.469 101.072C747.834 109.722 755.417 118.644 763.246 126.939C769.847 133.951 775.412 139.054 780.758 143.01C792.27 151.551 803.454 155.207 814.992 154.225C834.824 152.533 852.254 143.692 869.085 135.125C872.304 133.488 875.632 131.796 878.905 130.186C883.57 127.894 888.234 125.493 893.199 122.955C910.411 114.115 929.915 104.074 951.547 98.2891C961.067 95.7515 970.969 94.4691 981.798 94.3599C993.664 94.2508 1004.85 95.8879 1015.68 97.4705C1033.35 100.035 1050.05 102.464 1068.71 97.7979C1088.67 92.7228 1107.17 79.5438 1125.04 66.8014C1126.35 65.8464 1127.68 64.9187 1128.99 63.991C1152.72 47.183 1174.38 32.5579 1198.93 24.0721C1200.08 23.6901 1201.28 23.2808 1202.86 22.7897C1263.39 3.93527 1315.49 43.4722 1363.67 85.574C1386.01 105.11 1415.79 130.486 1447.95 153.734L1448.28 153.979L1449.18 152.888L1448.53 152.287L1448.15 152.751C1416.12 129.613 1386.5 104.319 1364.24 84.8918C1342.58 65.9556 1317.18 44.6455 1289.63 31.1664C1272.99 22.9807 1256.98 18.3967 1241.32 17.3052Z" fill="#81C103"/>
<path d="M1232.51 15.0677C1219.04 14.1127 1205.89 15.9135 1192.82 20.443C1191.79 20.7977 1190.42 21.2888 1189.06 21.8072C1165.08 30.8934 1143.69 46.0915 1122.09 62.19C1120.67 63.2542 1119.23 64.3183 1117.81 65.4097C1101.09 77.9611 1083.79 90.9491 1065.3 96.9792C1047.21 102.818 1030.71 102.027 1013.25 101.209C1003.4 100.745 993.2 100.254 982.398 100.99C971.569 101.727 962.267 103.2 953.074 105.683C934.989 110.54 918.867 117.307 903.264 123.828C895.708 126.993 888.561 129.968 881.551 132.587C879.287 133.433 876.968 134.306 874.759 135.152C857.328 141.782 839.297 148.631 819.22 148.576C808.391 148.549 797.889 144.538 787.087 136.352C782.04 132.532 776.666 127.594 770.256 120.881C763.491 113.787 756.808 106.175 750.316 98.8347C736.922 83.6365 723.092 67.8927 707.953 55.9416C696.087 46.5826 681.193 36.7052 664.58 35.5319C659.097 35.1499 653.451 35.7229 647.641 37.5511C627.646 43.8813 613.434 63.3087 601.677 81.0171C595.267 90.6762 589.075 101.563 582.528 113.05C561.878 149.368 538.474 190.514 500.284 203.912C468.205 215.153 437.19 209.123 405.438 185.467C383.752 169.286 363.812 146.967 344.553 125.384C335.115 114.797 325.322 103.855 315.393 93.6504C293.161 70.8396 273.712 57.0603 254.208 50.2935C247.034 47.8105 239.805 46.0642 232.713 45.0546C229.33 44.5908 225.92 44.2361 222.511 43.9905C190.732 41.7803 158.271 49.1748 126.764 56.3782L124.118 56.9785C115.198 59.0249 107.151 60.853 98.9407 62.5993C75.3451 67.6199 44.3844 73.4317 14.0511 73.8137C-13.3361 74.1684 -37.8865 72.2311 -61.6458 70.3484L-66.8013 69.9391C-76.7033 69.1206 -86.0324 68.3566 -95.4979 67.7017L-95.5525 68.5203C-86.087 69.1751 -76.7578 69.9391 -66.8559 70.7577L-61.7003 71.167C-37.9138 73.0497 -13.3361 75.0143 14.0784 74.6596C44.4663 74.2503 75.5088 68.4384 99.1317 63.4179C107.342 61.6716 115.389 59.8435 124.309 57.797L126.955 57.1967C161.762 49.2566 197.769 41.0163 232.631 45.9005C239.696 46.8828 246.87 48.629 253.99 51.112C273.384 57.8243 292.725 71.549 314.875 94.278C324.804 104.456 334.569 115.397 344.008 125.984C363.293 147.594 383.261 169.941 405.002 186.176C419.923 197.309 434.271 204.403 448.81 207.868C465.723 211.906 483.126 210.842 500.557 204.73C539.019 191.251 562.506 149.941 583.237 113.514C589.784 102.027 595.949 91.1674 602.359 81.5083C614.034 63.909 628.137 44.6181 647.886 38.3696C670.963 31.0571 691.859 44.2906 707.489 56.6237C722.574 68.5203 736.404 84.2368 749.743 99.4077C756.208 106.775 762.918 114.387 769.683 121.482C776.148 128.249 781.522 133.187 786.623 137.062C797.561 145.357 808.227 149.422 819.22 149.45C839.433 149.504 857.519 142.628 875.031 135.97C877.268 135.125 879.56 134.251 881.824 133.406C888.834 130.786 895.981 127.812 903.564 124.647C919.14 118.126 935.261 111.413 953.292 106.556C962.431 104.101 971.705 102.627 982.453 101.891C993.2 101.154 1003.38 101.645 1013.22 102.109C1030.76 102.955 1047.32 103.719 1065.54 97.8524C1084.15 91.7677 1101.52 78.7524 1118.3 66.1464C1119.74 65.0823 1121.16 63.9909 1122.58 62.9267C1144.13 46.8555 1165.46 31.7119 1189.36 22.6531C1190.72 22.1347 1192.09 21.6708 1193.12 21.2888C1251.58 1.09742 1302.18 39.1882 1348.99 79.953C1373.48 101.263 1406.16 128.958 1441.98 154.143L1442.31 154.388L1443.18 152.997L1442.53 152.56L1442.09 153.27C1406.44 128.167 1373.89 100.608 1349.51 79.3527C1328.45 61.0167 1303.73 40.3888 1277.03 27.6464C1261.67 20.2247 1246.91 16.0773 1232.51 15.0677Z" fill="#81C103"/>
<path d="M1223.56 12.7758C1209.76 11.8208 1196.31 13.8945 1183 18.9696C1182.02 19.3516 1180.71 19.8427 1179.4 20.3885C1156.08 30.1021 1135.13 45.846 1115.65 61.1532C1114.07 62.4084 1112.46 63.6635 1110.88 64.9186C1095.28 77.279 1079.15 90.0487 1062.02 97.0612C1043.99 104.374 1027.24 105.329 1009.49 106.338C1000.97 106.829 992.191 107.321 982.917 108.548C972.196 109.967 963.222 111.686 954.738 113.978C941.699 117.498 929.561 121.564 917.831 125.493C906.129 129.422 895.081 133.106 884.497 135.807L883.079 136.161C863.356 141.182 844.753 145.93 823.476 143.801C813.301 142.792 803.017 138.29 792.87 130.404C788.069 126.666 782.886 121.891 776.585 115.397C770.856 109.476 765.128 103.146 759.563 97.0612C745.488 81.5902 730.948 65.5735 715.018 54.059C704.843 46.6918 696.141 42.026 687.658 39.4066C676.556 35.9686 666.19 36.1323 655.988 39.925C636.811 47.0465 622.818 65.5462 611.225 82.3269C604.623 91.8496 598.295 102.409 591.612 113.596C571.017 147.922 547.666 186.858 511.168 201.292C477.916 214.444 446.11 209.587 413.949 186.449C390.844 169.832 369.676 145.984 349.218 122.901C340.434 112.996 331.323 102.737 322.158 93.132C299.544 69.4208 280.04 54.9048 260.782 47.4285C253.581 44.6181 246.27 42.5444 239.069 41.2074C203.662 34.6316 167.845 40.8527 128.019 49.0111C124.282 49.7751 120.518 50.5664 116.808 51.3304C112.034 52.3127 107.124 53.3495 102.296 54.3318C69.835 60.9349 42.7205 65.7645 15.9061 67.8382C-5.07079 69.4754 -24.6838 70.2666 -43.6421 71.0306C-50.789 71.3308 -57.5267 71.6036 -64.2917 71.9038C-77.0033 72.4495 -87.4781 72.9952 -97.2982 73.5955L-97.2709 74.3322C-87.4781 73.7319 -76.976 73.1862 -64.2917 72.6405C-57.4994 72.3403 -50.7617 72.0675 -43.6421 71.7673C-24.6838 71.0033 -5.07078 70.2121 15.9334 68.5749C42.7751 66.5012 69.9168 61.6716 102.405 55.0412C107.233 54.059 112.143 53.0221 116.917 52.0398C120.654 51.2758 124.391 50.4845 128.128 49.7205C167.873 41.5621 203.634 35.3683 238.905 41.9168C246.052 43.2538 253.308 45.3275 260.482 48.1107C279.631 55.5324 299.053 70.0211 321.612 93.6504C330.778 103.228 339.861 113.487 348.672 123.392C369.158 146.503 390.353 170.378 413.512 187.049C428.761 198.018 443.464 204.758 458.44 207.65C475.625 210.979 493.437 209.069 511.359 201.974C527.781 195.481 542.92 183.611 557.678 165.657C570.635 149.859 581.573 131.632 592.157 114.006C598.868 102.846 605.169 92.2862 611.743 82.7908C623.281 66.0919 637.193 47.7014 656.179 40.6344C679.011 32.1486 699.388 43.6904 714.581 54.6865C730.457 66.1738 744.969 82.1632 759.018 97.6069C764.582 103.719 770.311 110.022 776.039 115.97C782.368 122.491 787.55 127.294 792.379 131.032C802.608 138.999 813.028 143.556 823.339 144.565C844.725 146.694 863.411 141.946 883.188 136.898L884.606 136.543C895.217 133.842 906.292 130.131 917.995 126.23C929.724 122.3 941.863 118.235 954.875 114.715C963.358 112.423 972.278 110.704 982.971 109.312C992.219 108.085 1001 107.593 1009.49 107.102C1027.3 106.093 1044.1 105.138 1062.24 97.7706C1079.45 90.7309 1095.63 77.9066 1111.26 65.5462C1112.87 64.2911 1114.45 63.0086 1116.03 61.7808C1135.46 46.5281 1156.38 30.8116 1179.62 21.1252C1180.93 20.5795 1182.21 20.0883 1183.22 19.7063C1239.6 -1.84936 1288.7 34.8226 1334.18 74.2503C1360.88 97.3886 1396.56 127.43 1435.84 154.47L1436.17 154.688L1437.02 153.024L1436.39 152.697L1435.9 153.652C1396.75 126.693 1361.21 96.761 1334.61 73.7046C1314.13 55.9417 1290.12 35.9958 1264.26 23.9902C1250.3 17.4143 1236.79 13.7035 1223.56 12.7758Z" fill="#81C103"/>
<path d="M1214.54 10.4021C1200.46 9.41986 1186.74 11.7937 1173.21 17.5237C1172.25 17.933 1171.03 18.4514 1169.77 19.0244C1147.1 29.393 1127.44 45.0276 1109.24 60.1439C1107.41 61.6719 1105.56 63.1999 1103.73 64.7552C1089.36 76.8154 1074.46 89.285 1058.8 97.1705C1040.15 106.475 1022.33 109.449 1003.48 112.587C997.074 113.651 990.446 114.742 983.517 116.134C975.033 117.826 965.868 119.763 956.457 122.301C951.52 123.638 946.637 125.002 941.918 126.312C922.605 131.714 904.328 136.789 887.47 139.054C869.112 141.51 849.363 143.556 827.704 139.081C818.048 137.089 808.255 132.178 798.626 124.511C794.016 120.827 789.16 116.352 782.913 109.968C778.249 105.193 773.502 100.145 768.947 95.2878C754.162 79.544 738.886 63.2272 722.138 52.2038C708.417 43.1722 687.522 32.3125 664.39 42.2991C645.95 50.2665 632.229 67.8385 620.799 83.6641C614.007 93.0777 607.542 103.31 600.668 114.169C579.173 148.14 556.941 183.284 522.052 198.646C487.736 213.789 455.166 210.106 422.46 187.404C397.937 170.378 375.541 144.948 353.882 120.363C345.754 111.114 337.325 101.564 328.896 92.5593C305.846 67.9203 286.287 52.6676 267.329 44.5365C260.1 41.4259 252.735 38.9975 245.425 37.3058C207.371 28.4925 166.891 34.6045 131.92 41.0167C123.3 42.5992 114.598 44.2909 106.197 45.9281L105.651 46.0372C102.051 46.7466 98.4225 47.4561 94.8491 48.1655C68.1438 53.4043 42.8842 58.3703 17.761 61.8629C9.63211 63.0089 1.58505 64.1003 -6.18922 65.1372C-26.6751 67.9203 -46.0153 70.5397 -64.81 73.623C-76.1031 75.4239 -87.3145 77.3611 -99.0986 79.5167L-98.9895 80.1443C-87.2054 77.9887 -76.0213 76.0514 -64.7282 74.2506C-45.9335 71.1946 -26.5933 68.5752 -6.13467 65.792C1.63961 64.7279 9.65939 63.6365 17.8156 62.5178C42.966 58.9979 69.3713 53.8136 94.9309 48.8203C98.5316 48.1109 102.132 47.4015 105.733 46.6921L106.279 46.5829C114.68 44.9458 123.382 43.2541 132.002 41.6715C166.918 35.2867 207.317 29.1747 245.261 37.9607C252.517 39.6524 259.855 42.0535 267.056 45.1641C285.933 53.2679 305.409 68.4933 328.405 93.0504C336.834 102.027 345.235 111.577 353.391 120.827C375.078 145.439 397.5 170.896 422.078 187.95C437.654 198.782 452.739 205.167 468.151 207.514C485.881 210.188 503.558 207.486 522.243 199.246C537.928 192.343 552.522 180.665 566.925 163.584C579.609 148.495 590.548 131.25 601.132 114.551C608.006 103.719 614.471 93.4597 621.236 84.0734C632.611 68.3023 646.277 50.8122 664.581 42.9267C687.44 33.0492 708.171 43.8271 721.756 52.7768C738.45 63.7729 753.698 80.0351 768.456 95.779C773.039 100.663 777.758 105.711 782.45 110.486C788.724 116.871 793.579 121.373 798.216 125.056C807.927 132.806 817.775 137.744 827.54 139.763C849.281 144.266 869.085 142.219 887.498 139.736C904.41 137.471 922.687 132.369 942.027 126.966C946.746 125.657 951.629 124.292 956.566 122.955C965.95 120.418 975.088 118.481 983.571 116.789C990.473 115.397 997.101 114.306 1003.51 113.242C1022.42 110.104 1040.28 107.13 1059 97.7708C1074.71 89.858 1089.63 77.3611 1104.03 65.2736C1105.89 63.7183 1107.71 62.1903 1109.54 60.6623C1127.71 45.5734 1147.35 29.966 1169.94 19.6247C1171.19 19.0517 1172.42 18.5333 1173.35 18.124C1227.66 -4.82325 1275.26 30.4571 1319.37 68.5206C1350.14 95.0968 1387.32 126.148 1429.71 154.771L1430.01 154.962L1430.82 153.024L1430.25 152.779L1429.71 154.034C1387.48 125.466 1350.41 94.5238 1319.72 68.0295C1299.83 50.8395 1276.51 31.5758 1251.52 20.3068C1238.9 14.5496 1226.57 11.248 1214.54 10.4021Z" fill="#81C103"/>
<path d="M1205.4 7.97357C1191.05 6.96401 1177.14 9.66529 1163.42 16.0774C1162.11 16.6777 1161.1 17.1688 1160.14 17.66C1140.34 27.6192 1122.91 41.4531 1102.8 59.1615C1100.59 61.126 1098.33 63.1179 1096.15 65.0552C1083.11 76.6789 1069.61 88.6846 1055.56 97.3068C1034.58 110.077 1014.56 115.479 991.373 121.755C989 122.41 986.572 123.064 984.117 123.719C979.753 124.92 975.279 126.093 970.942 127.239C966.768 128.331 962.458 129.477 958.175 130.65C928.961 138.617 908.72 142.137 890.444 142.355C867.776 142.656 849.745 140.2 831.987 134.415C822.849 131.441 813.601 126.148 804.463 118.644C798.898 114.088 793.443 108.74 789.324 104.592C785.75 100.99 782.068 97.1977 778.522 93.5414C762.973 77.4701 746.906 60.8805 729.285 50.4301C719.71 44.7546 710.954 41.3712 702.579 40.0615C692.186 38.4517 682.448 39.9797 672.846 44.7819C655.934 53.2132 642.458 69.148 630.428 85.1101C623.445 94.3873 616.789 104.347 609.752 114.879C588.393 146.858 566.27 179.901 533.018 196.135C497.338 213.544 464.932 211.115 431.052 188.496C405.111 171.005 381.433 143.965 358.547 117.798C351.1 109.285 343.38 100.472 335.715 92.1498C311.874 66.2012 292.834 50.6483 273.958 41.7805C266.647 38.3425 259.2 35.5594 251.862 33.5402C213.373 22.8443 171.664 27.3191 135.93 33.131C128.156 34.3861 119.645 35.9141 109.116 37.8787C90.4846 41.3712 71.8264 45.2458 53.8228 49.0112C42.5842 51.3578 30.991 53.7589 19.7524 55.9963C-14.1544 62.7632 -41.1325 68.9297 -65.1645 75.451C-75.8303 78.316 -87.1507 81.5357 -100.708 85.5467L-100.572 86.0651C-86.987 82.0541 -75.6939 78.8617 -65.0281 75.9694C-40.9961 69.4482 -14.0452 63.2816 19.8615 56.5148C31.1001 54.2773 42.7206 51.8489 53.9319 49.5023C71.9628 45.7369 90.5937 41.8624 109.225 38.3698C119.754 36.4052 128.265 34.9045 136.039 33.6221C171.719 27.8375 213.373 23.3354 251.753 34.0314C259.064 36.0505 266.483 38.8064 273.767 42.2171C292.561 51.0849 311.574 66.5832 335.361 92.4773C343.026 100.799 350.718 109.613 358.165 118.126C381.079 144.32 404.784 171.387 430.78 188.905C446.792 199.601 462.231 205.658 478.025 207.432C496.056 209.478 514.142 205.904 533.264 196.572C566.652 180.283 588.802 147.158 610.215 115.124C617.253 104.592 623.909 94.6601 630.892 85.383C642.895 69.4754 656.288 53.5952 673.119 45.2185C690.359 36.6508 708.117 38.4517 729.094 50.8666C746.661 61.2898 762.7 77.8521 778.222 93.8961C781.768 97.5524 785.423 101.345 789.024 104.974C793.17 109.122 798.626 114.497 804.218 119.053C813.383 126.584 822.712 131.905 831.905 134.906C849.718 140.718 867.803 143.174 890.526 142.874C908.857 142.656 929.152 139.136 958.394 131.141C962.676 129.968 966.986 128.849 971.16 127.73C975.497 126.584 979.971 125.411 984.335 124.21C986.79 123.528 989.218 122.873 991.591 122.246C1014.8 115.97 1034.88 110.54 1055.91 97.7434C1070.02 89.0938 1083.52 77.0609 1096.58 65.4372C1098.77 63.4999 1101 61.4808 1103.24 59.5435C1123.29 41.8624 1140.72 28.0558 1160.44 18.1238C1161.4 17.66 1162.38 17.1688 1163.69 16.5413C1215.93 -7.79754 1262.03 26.064 1304.77 62.8177C1338.05 91.4404 1378.2 124.783 1423.81 155.098L1424.09 155.289L1424.9 153.106L1424.41 152.915L1423.84 154.47C1378.37 124.21 1338.32 90.9493 1305.13 62.4085C1285.84 45.8188 1263.23 27.21 1239.06 16.6504C1227.44 11.6299 1216.28 8.73757 1205.4 7.97357Z" fill="#81C103"/>
<path d="M1196.12 5.46311C1181.56 4.45354 1167.48 7.48225 1153.62 14.6038C1152.42 15.2041 1151.44 15.7498 1150.51 16.2409C1130.16 27.5099 1112.49 43.0082 1096.39 58.0971C1093.58 60.7439 1090.72 63.4724 1087.96 66.0918C1076.48 77.0334 1064.61 88.3296 1052.34 97.3885C1030.57 113.378 1009.54 122.519 984.689 131.277C977.352 133.869 969.468 136.298 959.866 138.945C935.371 145.684 913.603 147.867 893.362 145.602C873.449 143.392 854.736 138.181 836.187 129.667C827.595 125.711 818.866 120.036 810.218 112.723C805.063 108.385 799.962 103.419 795.625 99.1348C793.17 96.6791 790.633 94.1415 788.178 91.6858C771.838 75.2871 754.953 58.3427 736.349 48.5472C726.966 43.6085 718.346 40.9345 709.971 40.3069C709.917 40.3069 709.862 40.3069 709.835 40.3069C699.987 39.6248 690.358 41.9167 681.193 47.1283C664.771 56.4873 651.651 71.549 639.948 86.4197C632.72 95.5876 625.9 105.247 618.671 115.479C597.476 145.466 575.572 176.462 543.875 193.489C507.322 213.107 474.152 211.825 439.536 189.45C412.148 171.633 387.271 142.928 363.184 115.206C356.392 107.375 349.381 99.2985 342.425 91.5766C326.031 73.4044 304.181 51.0029 280.477 38.8608C273.194 35.1226 265.692 32.0121 258.163 29.6382C240.569 23.9901 221.474 21.0705 199.733 20.7158C181.948 20.4157 162.881 21.8345 139.776 25.1088C131.374 26.3094 122.427 27.7555 112.416 29.5563C80.3097 35.3136 48.4761 43.1173 21.5525 49.9933C-10.2538 58.2336 -38.7867 67.1287 -65.7375 77.1698C-78.8038 82.0267 -91.6791 87.1018 -102.563 91.4402L-102.399 91.8768C-91.5154 87.5384 -78.6401 82.4359 -65.5739 77.6064C-38.6503 67.5926 -10.1174 58.6974 21.6617 50.4572C48.5579 43.5812 80.3915 35.8048 112.498 30.0475C122.509 28.2466 131.483 26.8005 139.858 25.5999C173.465 20.8249 217.273 17.0049 258.054 30.1021C265.556 32.4759 273.03 35.5865 280.313 39.2973C303.936 51.3849 325.759 73.7864 342.153 91.9041C349.109 99.5986 356.119 107.702 362.911 115.506C386.998 143.283 411.903 171.987 439.345 189.832C455.739 200.446 471.587 206.176 487.763 207.404C487.927 207.404 488.091 207.432 488.254 207.432C506.476 208.714 524.753 204.266 544.093 193.871C575.872 176.817 597.831 145.766 619.053 115.724C626.282 105.52 633.101 95.8605 640.303 86.6925C651.978 71.8491 665.044 56.842 681.411 47.5103C698.214 37.933 716.136 38.3969 736.158 48.9292C754.707 58.6701 771.565 75.6145 787.878 91.9859C790.333 94.4416 792.87 97.0065 795.325 99.4349C799.662 103.719 804.79 108.685 809.946 113.023C818.62 120.336 827.404 126.066 836.024 130.022C854.6 138.563 873.367 143.774 893.335 145.984C913.63 148.249 935.452 146.066 960.003 139.299C969.605 136.653 977.515 134.224 984.853 131.632C1009.73 122.846 1030.79 113.705 1052.61 97.6613C1064.89 88.6025 1076.78 77.279 1088.26 66.3374C1091.02 63.718 1093.88 60.9894 1096.69 58.3427C1112.76 43.281 1130.44 27.7828 1150.73 16.5411C1151.66 16.0227 1152.64 15.5042 1153.81 14.904C1203.98 -10.881 1248.58 21.5889 1289.99 57.0603C1325.83 87.7567 1369.01 123.446 1417.7 155.371L1417.95 155.534L1418.74 153.133L1418.33 152.997L1417.7 154.852C1369.12 122.982 1326.02 87.3747 1290.26 56.7329C1271.55 40.7162 1249.64 22.7895 1226.32 12.9394C1215.95 8.65554 1205.92 6.14525 1196.12 5.46311Z" fill="#81C103"/>
<path d="M1186.74 2.8438C1171.95 1.80695 1157.77 5.24494 1143.83 13.1305C1142.77 13.7308 1141.81 14.3038 1140.91 14.8495C1121.16 26.9098 1104.09 42.9537 1090.01 57.0604C1086.16 60.935 1082.26 64.9187 1078.5 68.7659C1069.01 78.5069 1059.19 88.5753 1049.15 97.4432C1028.55 115.643 1008.29 128.767 985.317 138.808C977.788 142.137 970.041 144.866 961.612 147.212C939.571 153.297 917.613 153.843 896.336 148.822C878.059 144.511 859.783 136.68 840.47 124.893C832.477 120.008 824.267 113.924 816.056 106.775C811.391 102.737 806.563 98.098 802.035 93.6778C800.726 92.4226 799.416 91.1402 798.107 89.8578C780.922 73.0771 763.164 55.6961 743.496 46.6919C735.913 43.2266 728.602 41.2347 721.537 40.7436C710.408 39.9523 699.851 42.8719 689.622 49.5023C673.309 60.0891 660.216 74.7688 649.55 87.7568C642.021 96.8975 634.602 106.775 627.455 116.325C606.533 144.265 584.901 173.161 554.813 190.842C517.497 212.78 483.59 212.616 448.101 190.405C419.295 172.315 393.19 141.946 367.958 112.559C361.82 105.438 355.492 98.0435 349.245 91.0038C331.432 70.9215 310.128 48.6564 287.078 35.9413C279.849 31.9303 272.266 28.4923 264.574 25.7092C246.625 19.1879 227.148 15.4771 205.08 14.3311C186.585 13.3761 166.536 14.2765 143.731 17.0869C134.893 18.1783 125.755 19.5426 115.799 21.2343C86.5564 26.2549 56.3323 33.6766 23.4621 43.9633C-6.95305 53.5406 -37.0954 65.2734 -66.1739 78.8344C-79.1856 84.9191 -92.1427 91.3039 -104.281 97.3067L-104.118 97.6342C-91.979 91.604 -79.0492 85.2465 -66.0375 79.1618C-36.9863 65.6008 -6.84394 53.868 23.5439 44.318C56.4141 34.1405 86.5837 26.6915 115.826 21.6709C125.755 19.9519 134.893 18.6149 143.731 17.5235C193.105 11.4388 231.458 14.1673 264.41 26.1185C272.102 28.9016 279.658 32.3396 286.887 36.3233C309.855 49.0111 331.16 71.2489 348.945 91.3039C355.192 98.3436 361.52 105.711 367.658 112.832C392.917 142.219 419.023 172.615 447.883 190.733C464.686 201.265 480.944 206.695 497.502 207.377C506.558 207.759 515.833 206.64 525.08 204.103C534.818 201.429 544.857 197.09 554.922 191.169C585.065 173.461 606.723 144.538 627.673 116.57C634.82 107.02 642.212 97.143 649.768 88.0296C660.407 75.0689 673.5 60.3893 689.758 49.857C706.371 39.0792 723.883 38.1787 743.305 47.0739C762.918 56.0508 780.649 73.4045 797.807 90.1579C799.116 91.4403 800.426 92.7228 801.735 93.9779C806.263 98.3982 811.119 103.037 815.783 107.075C823.994 114.251 832.232 120.336 840.252 125.22C859.619 137.035 877.923 144.866 896.226 149.177C917.531 154.225 939.544 153.679 961.667 147.567C970.123 145.248 977.897 142.492 985.426 139.163C1008.42 129.122 1028.74 115.943 1049.37 97.7433C1059.4 88.8482 1069.22 78.7798 1078.72 69.0388C1082.48 65.1915 1086.38 61.1805 1090.23 57.3333C1104.3 43.2266 1121.35 27.2099 1141.08 15.1496C1141.98 14.6039 1142.93 14.0309 1143.99 13.4306C1192.17 -13.8823 1235.24 17.2506 1275.23 51.4668C1316.06 86.2288 1360.86 122.928 1411.62 155.807L1411.81 155.944L1412.6 153.324L1412.27 153.215L1411.62 155.398C1360.94 122.546 1316.23 85.9013 1275.45 51.194C1257.39 35.7503 1236.22 18.4785 1213.64 9.33779C1204.42 5.62694 1195.5 3.44409 1186.74 2.8438Z" fill="#81C103"/>
<path d="M1177.16 0.169432C1161.26 -0.94928 1146.09 3.471 1131.26 13.4575C1106.35 30.2382 1085.84 53.24 1065.98 75.4778C1042.33 101.972 1017.89 129.367 985.89 146.421C922.632 180.146 864.966 139.817 821.812 100.908C817.447 96.9789 812.946 92.6951 808.2 88.1384C792.788 73.4041 775.303 56.7053 756.754 47.6192C748.597 43.6355 740.768 41.3708 733.185 40.8251C720.883 39.9519 709.235 43.6628 697.996 51.9303C673.937 69.6387 654.897 93.6228 636.457 116.843C615.753 142.901 594.367 169.886 565.67 188.249C542.675 202.984 521.67 208.332 502.139 206.967C452.22 203.475 411.958 156.162 372.623 109.967C346.135 78.834 321.121 49.4473 293.598 33.1305C281.104 25.7088 267.247 19.8151 252.435 15.5858C238.85 11.7386 224.066 9.14641 208.463 7.91856C182.003 5.84485 152.788 7.53656 119.154 13.0483C87.6749 18.2325 55.514 26.8821 23.5712 38.7513C-5.97101 49.7202 -36.3316 63.8269 -66.6376 80.6621C-80.0858 88.1384 -93.2611 95.8602 -106 103.337L-105.864 103.582C-93.1247 96.1058 -79.9494 88.384 -66.5012 80.9077C-2.80674 45.5182 57.9417 23.4168 119.181 13.3484C193.187 1.179 250.198 7.72756 293.461 33.4034C320.958 49.6929 345.972 79.0795 372.432 110.185C399.546 142.055 427.588 174.989 458.849 193.106C475.734 202.902 492.019 207.595 508.686 207.459C517.742 207.404 526.99 205.849 536.21 202.847C545.893 199.709 555.85 194.88 565.806 188.495C594.53 170.077 615.944 143.092 636.675 117.007C655.088 93.8138 674.128 69.8297 698.16 52.1486C716.245 38.8332 735.395 37.4143 756.644 47.8648C775.139 56.9236 792.597 73.6224 808.009 88.3294C812.756 92.8588 817.256 97.1699 821.621 101.099C839.815 117.498 867.53 140.609 898.109 151.987C912.621 157.389 926.996 159.872 940.799 159.327C956.075 158.754 971.296 154.47 985.999 146.639C1018.05 129.558 1042.52 102.136 1066.17 75.6416C1086 53.4038 1106.51 30.4292 1131.39 13.6758C1178.39 -18.0028 1220.92 12.1751 1260.47 45.791C1303.74 82.5721 1351.25 121.4 1405.54 156.162L1405.67 156.243L1406.44 153.406L1406.19 153.324L1405.51 155.807C1351.28 121.072 1303.82 82.272 1260.61 45.5455C1242.71 30.3474 1221.79 13.4303 1199.67 5.18999C1192 2.37957 1184.5 0.687859 1177.16 0.169432Z" fill="#81C103"/>
</svg>
