<svg width="34" height="27" viewBox="0 0 34 27" fill="none" xmlns="http://www.w3.org/2000/svg">
<path d="M32.1643 11.8114H25.4944C25.3765 11.7954 25.2569 11.7954 25.1389 11.8114H24.8512C24.7627 11.8617 24.6778 11.9181 24.5972 11.9801C24.503 12.0422 24.4125 12.1098 24.3264 12.1827C24.2699 12.2517 24.2189 12.325 24.174 12.4021C24.0964 12.5084 24.0285 12.6213 23.9709 12.7396L21.2623 20.182L14.2031 1.11185C14.0845 0.786052 13.8681 0.504564 13.5834 0.305639C13.2987 0.106714 12.9595 0 12.6118 0C12.2641 0 11.9249 0.106714 11.6402 0.305639C11.3555 0.504564 11.1391 0.786052 11.0205 1.11185L7.11 11.8114H1.69286C1.24388 11.8114 0.813299 11.9892 0.495826 12.3057C0.178354 12.6222 0 13.0514 0 13.499C0 13.9466 0.178354 14.3758 0.495826 14.6923C0.813299 15.0088 1.24388 15.1866 1.69286 15.1866H8.97215C9.06837 15.1405 9.1592 15.0839 9.243 15.0179C9.33727 14.9558 9.42771 14.8882 9.51386 14.8154L9.66622 14.596C9.74691 14.4917 9.81508 14.3785 9.86936 14.2584L12.6118 6.6135L19.6541 25.8862C19.7724 26.2123 19.9886 26.4943 20.2733 26.6936C20.558 26.8928 20.8975 26.9999 21.2454 27C21.5933 26.9999 21.9327 26.8928 22.2174 26.6936C22.5021 26.4943 22.7184 26.2123 22.8367 25.8862L26.7302 15.1866H32.1643C32.6133 15.1866 33.0439 15.0088 33.3613 14.6923C33.6788 14.3758 33.8572 13.9466 33.8572 13.499C33.8572 13.0514 33.6788 12.6222 33.3613 12.3057C33.0439 11.9892 32.6133 11.8114 32.1643 11.8114Z" fill="white"/>
</svg>
