<svg id="ed7MVufWniL1" xmlns="http://www.w3.org/2000/svg" xmlns:xlink="http://www.w3.org/1999/xlink" viewBox="0 0 1180 488" shape-rendering="geometricPrecision" text-rendering="geometricPrecision"><style><![CDATA[#ed7MVufWniL2_ts {animation: ed7MVufWniL2_ts__ts 3000ms linear infinite normal forwards}@keyframes ed7MVufWniL2_ts__ts { 0% {transform: translate(791.700012px,357.250015px) scale(0,0);animation-timing-function: cubic-bezier(0.42,0,0.58,1)} 10% {transform: translate(791.700012px,357.250015px) scale(1,1);animation-timing-function: cubic-bezier(0.42,0,0.58,1)} 20% {transform: translate(791.700012px,357.250015px) scale(0,0)} 100% {transform: translate(791.700012px,357.250015px) scale(0,0)}} #ed7MVufWniL2 {animation: ed7MVufWniL2_c_o 3000ms linear infinite normal forwards}@keyframes ed7MVufWniL2_c_o { 0% {opacity: 0;animation-timing-function: cubic-bezier(0.42,0,0.58,1)} 10% {opacity: 1;animation-timing-function: cubic-bezier(0.42,0,0.58,1)} 20% {opacity: 0} 100% {opacity: 0}} #ed7MVufWniL4_ts {animation: ed7MVufWniL4_ts__ts 3000ms linear infinite normal forwards}@keyframes ed7MVufWniL4_ts__ts { 0% {transform: translate(971.200012px,155.049995px) scale(1,1);animation-timing-function: cubic-bezier(0.42,0,0.58,1)} 10% {transform: translate(971.200012px,155.049995px) scale(0,0);animation-timing-function: cubic-bezier(0.42,0,0.58,1)} 20% {transform: translate(971.200012px,155.049995px) scale(1,1)} 100% {transform: translate(971.200012px,155.049995px) scale(1,1)}} #ed7MVufWniL4 {animation: ed7MVufWniL4_c_o 3000ms linear infinite normal forwards}@keyframes ed7MVufWniL4_c_o { 0% {opacity: 1;animation-timing-function: cubic-bezier(0.42,0,0.58,1)} 10% {opacity: 0;animation-timing-function: cubic-bezier(0.42,0,0.58,1)} 20% {opacity: 1} 100% {opacity: 1}} #ed7MVufWniL5_ts {animation: ed7MVufWniL5_ts__ts 3000ms linear infinite normal forwards}@keyframes ed7MVufWniL5_ts__ts { 0% {transform: translate(971.250061px,155px) scale(1,1);animation-timing-function: cubic-bezier(0.42,0,0.58,1)} 10% {transform: translate(971.250061px,155px) scale(0,0);animation-timing-function: cubic-bezier(0.42,0,0.58,1)} 20% {transform: translate(971.250061px,155px) scale(1,1)} 100% {transform: translate(971.250061px,155px) scale(1,1)}} #ed7MVufWniL5 {animation: ed7MVufWniL5_c_o 3000ms linear infinite normal forwards}@keyframes ed7MVufWniL5_c_o { 0% {opacity: 1;animation-timing-function: cubic-bezier(0.42,0,0.58,1)} 10% {opacity: 0;animation-timing-function: cubic-bezier(0.42,0,0.58,1)} 20% {opacity: 1} 100% {opacity: 1}} #ed7MVufWniL7_ts {animation: ed7MVufWniL7_ts__ts 3000ms linear infinite normal forwards}@keyframes ed7MVufWniL7_ts__ts { 0% {transform: translate(174.100006px,196.149994px) scale(0,0);animation-timing-function: cubic-bezier(0.42,0,0.58,1)} 10% {transform: translate(174.100006px,196.149994px) scale(1,1);animation-timing-function: cubic-bezier(0.42,0,0.58,1)} 20% {transform: translate(174.100006px,196.149994px) scale(0,0)} 100% {transform: translate(174.100006px,196.149994px) scale(0,0)}} #ed7MVufWniL7 {animation: ed7MVufWniL7_c_o 3000ms linear infinite normal forwards}@keyframes ed7MVufWniL7_c_o { 0% {opacity: 0;animation-timing-function: cubic-bezier(0.42,0,0.58,1)} 10% {opacity: 1;animation-timing-function: cubic-bezier(0.42,0,0.58,1)} 20% {opacity: 0} 100% {opacity: 0}} #ed7MVufWniL8_ts {animation: ed7MVufWniL8_ts__ts 3000ms linear infinite normal forwards}@keyframes ed7MVufWniL8_ts__ts { 0% {transform: translate(174.149994px,196.100006px) scale(0,0);animation-timing-function: cubic-bezier(0.42,0,0.58,1)} 10% {transform: translate(174.149994px,196.100006px) scale(1,1);animation-timing-function: cubic-bezier(0.42,0,0.58,1)} 20% {transform: translate(174.149994px,196.100006px) scale(0,0)} 100% {transform: translate(174.149994px,196.100006px) scale(0,0)}} #ed7MVufWniL8 {animation: ed7MVufWniL8_c_o 3000ms linear infinite normal forwards}@keyframes ed7MVufWniL8_c_o { 0% {opacity: 0;animation-timing-function: cubic-bezier(0.42,0,0.58,1)} 10% {opacity: 1;animation-timing-function: cubic-bezier(0.42,0,0.58,1)} 20% {opacity: 0} 100% {opacity: 0}} #ed7MVufWniL10_ts {animation: ed7MVufWniL10_ts__ts 3000ms linear infinite normal forwards}@keyframes ed7MVufWniL10_ts__ts { 0% {transform: translate(1050.300049px,19.05px) scale(0,0);animation-timing-function: cubic-bezier(0.42,0,0.58,1)} 10% {transform: translate(1050.300049px,19.05px) scale(1,1);animation-timing-function: cubic-bezier(0.42,0,0.58,1)} 20% {transform: translate(1050.300049px,19.05px) scale(0,0)} 100% {transform: translate(1050.300049px,19.05px) scale(0,0)}} #ed7MVufWniL10 {animation: ed7MVufWniL10_c_o 3000ms linear infinite normal forwards}@keyframes ed7MVufWniL10_c_o { 0% {opacity: 0;animation-timing-function: cubic-bezier(0.42,0,0.58,1)} 10% {opacity: 1;animation-timing-function: cubic-bezier(0.42,0,0.58,1)} 20% {opacity: 0} 100% {opacity: 0}} #ed7MVufWniL11_ts {animation: ed7MVufWniL11_ts__ts 3000ms linear infinite normal forwards}@keyframes ed7MVufWniL11_ts__ts { 0% {transform: translate(1050.300049px,19px) scale(0,0);animation-timing-function: cubic-bezier(0.42,0,0.58,1)} 10% {transform: translate(1050.300049px,19px) scale(1,1);animation-timing-function: cubic-bezier(0.42,0,0.58,1)} 20% {transform: translate(1050.300049px,19px) scale(0,0)} 100% {transform: translate(1050.300049px,19px) scale(0,0)}} #ed7MVufWniL11 {animation: ed7MVufWniL11_c_o 3000ms linear infinite normal forwards}@keyframes ed7MVufWniL11_c_o { 0% {opacity: 0;animation-timing-function: cubic-bezier(0.42,0,0.58,1)} 10% {opacity: 1;animation-timing-function: cubic-bezier(0.42,0,0.58,1)} 20% {opacity: 0} 100% {opacity: 0}} #ed7MVufWniL13_ts {animation: ed7MVufWniL13_ts__ts 3000ms linear infinite normal forwards}@keyframes ed7MVufWniL13_ts__ts { 0% {transform: translate(15.900001px,347.949997px) scale(1,1);animation-timing-function: cubic-bezier(0.42,0,0.58,1)} 10% {transform: translate(15.900001px,347.949997px) scale(0,0);animation-timing-function: cubic-bezier(0.42,0,0.58,1)} 20% {transform: translate(15.900001px,347.949997px) scale(1,1)} 100% {transform: translate(15.900001px,347.949997px) scale(1,1)}} #ed7MVufWniL13 {animation: ed7MVufWniL13_c_o 3000ms linear infinite normal forwards}@keyframes ed7MVufWniL13_c_o { 0% {opacity: 1;animation-timing-function: cubic-bezier(0.42,0,0.58,1)} 10% {opacity: 0;animation-timing-function: cubic-bezier(0.42,0,0.58,1)} 20% {opacity: 1} 100% {opacity: 1}} #ed7MVufWniL14_ts {animation: ed7MVufWniL14_ts__ts 3000ms linear infinite normal forwards}@keyframes ed7MVufWniL14_ts__ts { 0% {transform: translate(15.949999px,348px) scale(1,1);animation-timing-function: cubic-bezier(0.42,0,0.58,1)} 10% {transform: translate(15.949999px,348px) scale(0,0);animation-timing-function: cubic-bezier(0.42,0,0.58,1)} 20% {transform: translate(15.949999px,348px) scale(1,1)} 100% {transform: translate(15.949999px,348px) scale(1,1)}} #ed7MVufWniL14 {animation: ed7MVufWniL14_c_o 3000ms linear infinite normal forwards}@keyframes ed7MVufWniL14_c_o { 0% {opacity: 1;animation-timing-function: cubic-bezier(0.42,0,0.58,1)} 10% {opacity: 0;animation-timing-function: cubic-bezier(0.42,0,0.58,1)} 20% {opacity: 1} 100% {opacity: 1}} #ed7MVufWniL15_ts {animation: ed7MVufWniL15_ts__ts 3000ms linear infinite normal forwards}@keyframes ed7MVufWniL15_ts__ts { 0% {transform: translate(255.150002px,403.75px) scale(1,1);animation-timing-function: cubic-bezier(0.42,0,0.58,1)} 10% {transform: translate(255.150002px,403.75px) scale(0,0);animation-timing-function: cubic-bezier(0.42,0,0.58,1)} 20% {transform: translate(255.150002px,403.75px) scale(1,1)} 100% {transform: translate(255.150002px,403.75px) scale(1,1)}} #ed7MVufWniL15 {animation: ed7MVufWniL15_c_o 3000ms linear infinite normal forwards}@keyframes ed7MVufWniL15_c_o { 0% {opacity: 1;animation-timing-function: cubic-bezier(0.42,0,0.58,1)} 10% {opacity: 0;animation-timing-function: cubic-bezier(0.42,0,0.58,1)} 20% {opacity: 1} 100% {opacity: 1}} #ed7MVufWniL16_ts {animation: ed7MVufWniL16_ts__ts 3000ms linear infinite normal forwards}@keyframes ed7MVufWniL16_ts__ts { 0% {transform: translate(286.300003px,26.9px) scale(0,0);animation-timing-function: cubic-bezier(0.42,0,0.58,1)} 10% {transform: translate(286.300003px,26.9px) scale(1,1);animation-timing-function: cubic-bezier(0.42,0,0.58,1)} 20% {transform: translate(286.300003px,26.9px) scale(0,0)} 100% {transform: translate(286.300003px,26.9px) scale(0,0)}} #ed7MVufWniL16 {animation: ed7MVufWniL16_c_o 3000ms linear infinite normal forwards}@keyframes ed7MVufWniL16_c_o { 0% {opacity: 0;animation-timing-function: cubic-bezier(0.42,0,0.58,1)} 10% {opacity: 1;animation-timing-function: cubic-bezier(0.42,0,0.58,1)} 20% {opacity: 0} 100% {opacity: 0}} #ed7MVufWniL17_ts {animation: ed7MVufWniL17_ts__ts 3000ms linear infinite normal forwards}@keyframes ed7MVufWniL17_ts__ts { 0% {transform: translate(928.5px,188.199997px) scale(1,1);animation-timing-function: cubic-bezier(0.42,0,0.58,1)} 10% {transform: translate(928.5px,188.199997px) scale(0,0);animation-timing-function: cubic-bezier(0.42,0,0.58,1)} 20% {transform: translate(928.5px,188.199997px) scale(1,1)} 100% {transform: translate(928.5px,188.199997px) scale(1,1)}} #ed7MVufWniL17 {animation: ed7MVufWniL17_c_o 3000ms linear infinite normal forwards}@keyframes ed7MVufWniL17_c_o { 0% {opacity: 1;animation-timing-function: cubic-bezier(0.42,0,0.58,1)} 10% {opacity: 0;animation-timing-function: cubic-bezier(0.42,0,0.58,1)} 20% {opacity: 1} 100% {opacity: 1}} #ed7MVufWniL18_ts {animation: ed7MVufWniL18_ts__ts 3000ms linear infinite normal forwards}@keyframes ed7MVufWniL18_ts__ts { 0% {transform: translate(1070.900024px,476px) scale(0,0);animation-timing-function: cubic-bezier(0.42,0,0.58,1)} 10% {transform: translate(1070.900024px,476px) scale(1,1);animation-timing-function: cubic-bezier(0.42,0,0.58,1)} 20% {transform: translate(1070.900024px,476px) scale(0,0)} 100% {transform: translate(1070.900024px,476px) scale(0,0)}} #ed7MVufWniL18 {animation: ed7MVufWniL18_c_o 3000ms linear infinite normal forwards}@keyframes ed7MVufWniL18_c_o { 0% {opacity: 0;animation-timing-function: cubic-bezier(0.42,0,0.58,1)} 10% {opacity: 1;animation-timing-function: cubic-bezier(0.42,0,0.58,1)} 20% {opacity: 0} 100% {opacity: 0}} #ed7MVufWniL19_ts {animation: ed7MVufWniL19_ts__ts 3000ms linear infinite normal forwards}@keyframes ed7MVufWniL19_ts__ts { 0% {transform: translate(1168.900024px,314.699982px) scale(1,1);animation-timing-function: cubic-bezier(0.42,0,0.58,1)} 10% {transform: translate(1168.900024px,314.699982px) scale(0,0);animation-timing-function: cubic-bezier(0.42,0,0.58,1)} 20% {transform: translate(1168.900024px,314.699982px) scale(1,1)} 100% {transform: translate(1168.900024px,314.699982px) scale(1,1)}} #ed7MVufWniL19 {animation: ed7MVufWniL19_c_o 3000ms linear infinite normal forwards}@keyframes ed7MVufWniL19_c_o { 0% {opacity: 1;animation-timing-function: cubic-bezier(0.42,0,0.58,1)} 10% {opacity: 0;animation-timing-function: cubic-bezier(0.42,0,0.58,1)} 20% {opacity: 1} 100% {opacity: 1}} #ed7MVufWniL20_ts {animation: ed7MVufWniL20_ts__ts 3000ms linear infinite normal forwards}@keyframes ed7MVufWniL20_ts__ts { 0% {transform: translate(112.400002px,9.5px) scale(0,0);animation-timing-function: cubic-bezier(0.42,0,0.58,1)} 10% {transform: translate(112.400002px,9.5px) scale(1,1);animation-timing-function: cubic-bezier(0.42,0,0.58,1)} 20% {transform: translate(112.400002px,9.5px) scale(0,0)} 100% {transform: translate(112.400002px,9.5px) scale(0,0)}} #ed7MVufWniL20 {animation: ed7MVufWniL20_c_o 3000ms linear infinite normal forwards}@keyframes ed7MVufWniL20_c_o { 0% {opacity: 0;animation-timing-function: cubic-bezier(0.42,0,0.58,1)} 10% {opacity: 1;animation-timing-function: cubic-bezier(0.42,0,0.58,1)} 20% {opacity: 0} 100% {opacity: 0}} #ed7MVufWniL21_ts {animation: ed7MVufWniL21_ts__ts 3000ms linear infinite normal forwards}@keyframes ed7MVufWniL21_ts__ts { 0% {transform: translate(125.099998px,219.799988px) scale(1,1);animation-timing-function: cubic-bezier(0.42,0,0.58,1)} 10% {transform: translate(125.099998px,219.799988px) scale(0,0);animation-timing-function: cubic-bezier(0.42,0,0.58,1)} 20% {transform: translate(125.099998px,219.799988px) scale(1,1)} 100% {transform: translate(125.099998px,219.799988px) scale(1,1)}} #ed7MVufWniL21 {animation: ed7MVufWniL21_c_o 3000ms linear infinite normal forwards}@keyframes ed7MVufWniL21_c_o { 0% {opacity: 1;animation-timing-function: cubic-bezier(0.42,0,0.58,1)} 10% {opacity: 0;animation-timing-function: cubic-bezier(0.42,0,0.58,1)} 20% {opacity: 1} 100% {opacity: 1}} #ed7MVufWniL22_ts {animation: ed7MVufWniL22_ts__ts 3000ms linear infinite normal forwards}@keyframes ed7MVufWniL22_ts__ts { 0% {transform: translate(874.502045px,323.28894px) scale(0,0);animation-timing-function: cubic-bezier(0.42,0,0.58,1)} 10% {transform: translate(874.502045px,323.28894px) scale(1,1);animation-timing-function: cubic-bezier(0.42,0,0.58,1)} 20% {transform: translate(874.502045px,323.28894px) scale(0,0)} 100% {transform: translate(874.502045px,323.28894px) scale(0,0)}} #ed7MVufWniL22 {animation: ed7MVufWniL22_c_o 3000ms linear infinite normal forwards}@keyframes ed7MVufWniL22_c_o { 0% {opacity: 0;animation-timing-function: cubic-bezier(0.42,0,0.58,1)} 10% {opacity: 1;animation-timing-function: cubic-bezier(0.42,0,0.58,1)} 20% {opacity: 0} 100% {opacity: 0}} #ed7MVufWniL23_ts {animation: ed7MVufWniL23_ts__ts 3000ms linear infinite normal forwards}@keyframes ed7MVufWniL23_ts__ts { 0% {transform: translate(323.302063px,61.388945px) scale(1,1);animation-timing-function: cubic-bezier(0.42,0,0.58,1)} 10% {transform: translate(323.302063px,61.388945px) scale(0,0);animation-timing-function: cubic-bezier(0.42,0,0.58,1)} 20% {transform: translate(323.302063px,61.388945px) scale(1,1)} 100% {transform: translate(323.302063px,61.388945px) scale(1,1)}} #ed7MVufWniL23 {animation: ed7MVufWniL23_c_o 3000ms linear infinite normal forwards}@keyframes ed7MVufWniL23_c_o { 0% {opacity: 1;animation-timing-function: cubic-bezier(0.42,0,0.58,1)} 10% {opacity: 0;animation-timing-function: cubic-bezier(0.42,0,0.58,1)} 20% {opacity: 1} 100% {opacity: 1}} #ed7MVufWniL24_ts {animation: ed7MVufWniL24_ts__ts 3000ms linear infinite normal forwards}@keyframes ed7MVufWniL24_ts__ts { 0% {transform: translate(248.604828px,323.411621px) scale(0,0);animation-timing-function: cubic-bezier(0.42,0,0.58,1)} 10% {transform: translate(248.604828px,323.411621px) scale(1,1);animation-timing-function: cubic-bezier(0.42,0,0.58,1)} 20% {transform: translate(248.604828px,323.411621px) scale(0,0)} 100% {transform: translate(248.604828px,323.411621px) scale(0,0)}} #ed7MVufWniL24 {animation: ed7MVufWniL24_c_o 3000ms linear infinite normal forwards}@keyframes ed7MVufWniL24_c_o { 0% {opacity: 0;animation-timing-function: cubic-bezier(0.42,0,0.58,1)} 10% {opacity: 1;animation-timing-function: cubic-bezier(0.42,0,0.58,1)} 20% {opacity: 0} 100% {opacity: 0}}]]></style><g id="ed7MVufWniL2_ts" transform="translate(791.700012,357.250015) scale(0,0)"><path id="ed7MVufWniL2" d="M780.7,338.2L812.2,349.3L802.7,376.3L771.2,365.2L780.7,338.2Z" transform="translate(-791.700012,-357.250015)" opacity="0" fill="none" stroke="none" stroke-width="1"/></g><g id="ed7MVufWniL3" transform="matrix(1 0 0 1 0 0.000001)"><g id="ed7MVufWniL4_ts" transform="translate(971.200012,155.049995) scale(1,1)"><path id="ed7MVufWniL4" d="M971.2,139.2C974.7,139.2,977.5,141.8,977.5,145.1L977.5,165C977.5,168.2,974.7,170.9,971.2,170.9C967.7,170.9,964.9,168.3,964.9,165L964.9,145C964.9,141.8,967.7,139.2,971.2,139.2Z" transform="translate(-971.200012,-155.049995)" clip-rule="evenodd" fill="rgb(129,193,3)" fill-rule="evenodd" stroke="none" stroke-width="1"/></g><g id="ed7MVufWniL5_ts" transform="translate(971.250061,155) scale(1,1)"><path id="ed7MVufWniL5" d="M955.4,155C955.4,151.5,958,148.7,961.3,148.7L981.2,148.7C984.4,148.7,987.1,151.5,987.1,155C987.1,158.5,984.5,161.3,981.2,161.3L961.3,161.3C958,161.3,955.4,158.5,955.4,155Z" transform="translate(-971.250061,-155)" clip-rule="evenodd" fill="rgb(129,193,3)" fill-rule="evenodd" stroke="none" stroke-width="1"/></g></g><g id="ed7MVufWniL6" transform="matrix(1 0 0 1 0.000001 0.000001)"><g id="ed7MVufWniL7_ts" transform="translate(174.100006,196.149994) scale(0,0)"><path id="ed7MVufWniL7" d="M174.1,180.3C177.6,180.3,180.4,182.9,180.4,186.2L180.4,206.1C180.4,209.3,177.6,212,174.1,212C170.6,212,167.8,209.4,167.8,206.1L167.8,186.2C167.8,182.9,170.6,180.3,174.1,180.3Z" transform="translate(-174.100006,-196.149994)" opacity="0" clip-rule="evenodd" fill="rgb(129,193,3)" fill-rule="evenodd" stroke="none" stroke-width="1"/></g><g id="ed7MVufWniL8_ts" transform="translate(174.149994,196.100006) scale(0,0)"><path id="ed7MVufWniL8" d="M158.3,196.1C158.3,192.6,160.9,189.8,164.2,189.8L184.1,189.8C187.3,189.8,190,192.6,190,196.1C190,199.6,187.4,202.4,184.1,202.4L164.2,202.4C160.9,202.4,158.3,199.6,158.3,196.1Z" transform="translate(-174.149994,-196.100006)" opacity="0" clip-rule="evenodd" fill="rgb(129,193,3)" fill-rule="evenodd" stroke="none" stroke-width="1"/></g></g><g id="ed7MVufWniL9"><g id="ed7MVufWniL10_ts" transform="translate(1050.300049,19.05) scale(0,0)"><path id="ed7MVufWniL10" d="M1050.3,3.2C1053.8,3.2,1056.6,5.8,1056.6,9.1L1056.6,29C1056.6,32.2,1053.8,34.9,1050.3,34.9C1046.8,34.9,1044,32.3,1044,29L1044,9C1044,5.8,1046.8,3.2,1050.3,3.2Z" transform="translate(-1050.300049,-19.05)" opacity="0" clip-rule="evenodd" fill="rgb(192,224,129)" fill-rule="evenodd" stroke="none" stroke-width="1"/></g><g id="ed7MVufWniL11_ts" transform="translate(1050.300049,19) scale(0,0)"><path id="ed7MVufWniL11" d="M1034.5,19C1034.5,15.5,1037.1,12.7,1040.4,12.7L1060.3,12.7C1063.5,12.7,1066.1,15.5,1066.1,19C1066.1,22.5,1063.5,25.3,1060.3,25.3L1040.4,25.3C1037.1,25.3,1034.5,22.5,1034.5,19Z" transform="translate(-1050.300049,-19)" opacity="0" clip-rule="evenodd" fill="rgb(192,224,129)" fill-rule="evenodd" stroke="none" stroke-width="1"/></g></g><g id="ed7MVufWniL12" transform="matrix(1 0 0 1 0.000001 0)"><g id="ed7MVufWniL13_ts" transform="translate(15.900001,347.949997) scale(1,1)"><path id="ed7MVufWniL13" d="M15.9,332.1C19.4,332.1,22.2,334.7,22.2,338L22.2,357.9C22.2,361.1,19.4,363.8,15.9,363.8C12.4,363.8,9.6,361.2,9.6,357.9L9.6,338C9.6,334.8,12.4,332.1,15.9,332.1Z" transform="translate(-15.900001,-347.949997)" clip-rule="evenodd" fill="rgb(234,234,234)" fill-rule="evenodd" stroke="none" stroke-width="1"/></g><g id="ed7MVufWniL14_ts" transform="translate(15.949999,348) scale(1,1)"><path id="ed7MVufWniL14" d="M0.1,348C0.1,344.5,2.7,341.7,6,341.7L25.9,341.7C29.1,341.7,31.8,344.5,31.8,348C31.8,351.5,29.2,354.3,25.9,354.3L6,354.3C2.7,354.3,0.1,351.4,0.1,348Z" transform="translate(-15.949999,-348)" clip-rule="evenodd" fill="rgb(234,234,234)" fill-rule="evenodd" stroke="none" stroke-width="1"/></g></g><g id="ed7MVufWniL15_ts" transform="translate(255.150002,403.75) scale(1,1)"><path id="ed7MVufWniL15" d="M234.8,395.5L266.4,384.9L275.5,412L243.9,422.6L234.8,395.5Z" transform="translate(-255.150002,-403.75)" fill="none" stroke="none" stroke-width="1"/></g><g id="ed7MVufWniL16_ts" transform="translate(286.300003,26.9) scale(0,0)"><path id="ed7MVufWniL16" d="M277,7L307.4,20.8L295.6,46.8L265.2,33L277,7Z" transform="translate(-286.300003,-26.9)" opacity="0" fill="none" stroke="none" stroke-width="1"/></g><g id="ed7MVufWniL17_ts" transform="translate(928.5,188.199997) scale(1,1)"><path id="ed7MVufWniL17" d="M928.5,191.9C930.5,191.9,932.2,190.2,932.2,188.2C932.2,186.2,930.5,184.5,928.5,184.5C926.5,184.5,924.8,186.2,924.8,188.2C924.8,190.2,926.5,191.9,928.5,191.9ZM928.5,199.3C934.6,199.3,939.6,194.3,939.6,188.2C939.6,182.1,934.6,177.1,928.5,177.1C922.4,177.1,917.4,182.1,917.4,188.2C917.5,194.3,922.4,199.3,928.5,199.3Z" transform="translate(-928.5,-188.199997)" clip-rule="evenodd" fill="rgb(129,193,3)" fill-rule="evenodd" stroke="none" stroke-width="1"/></g><g id="ed7MVufWniL18_ts" transform="translate(1070.900024,476) scale(0,0)"><path id="ed7MVufWniL18" d="M1070.9,479.8C1072.9,479.8,1074.6,478.1,1074.6,476.1C1074.6,474.1,1072.9,472.4,1070.9,472.4C1068.9,472.4,1067.2,474.1,1067.2,476.1C1067.2,478.1,1068.8,479.8,1070.9,479.8ZM1070.9,487.1C1077,487.1,1082,482.1,1082,476C1082,469.9,1077,464.9,1070.9,464.9C1064.8,464.9,1059.8,469.9,1059.8,476C1059.8,482.2,1064.8,487.1,1070.9,487.1Z" transform="translate(-1070.900024,-476)" opacity="0" clip-rule="evenodd" fill="rgb(192,224,129)" fill-rule="evenodd" stroke="none" stroke-width="1"/></g><g id="ed7MVufWniL19_ts" transform="translate(1168.900024,314.699982) scale(1,1)"><path id="ed7MVufWniL19" d="M1168.9,318.4C1170.9,318.4,1172.6,316.7,1172.6,314.7C1172.6,312.7,1170.9,311,1168.9,311C1166.9,311,1165.2,312.7,1165.2,314.7C1165.2,316.8,1166.9,318.4,1168.9,318.4ZM1168.9,325.8C1175,325.8,1180,320.8,1180,314.7C1180,308.6,1175,303.6,1168.9,303.6C1162.8,303.6,1157.8,308.6,1157.8,314.7C1157.9,320.9,1162.8,325.8,1168.9,325.8Z" transform="translate(-1168.900024,-314.699982)" clip-rule="evenodd" fill="rgb(234,234,234)" fill-rule="evenodd" stroke="none" stroke-width="1"/></g><g id="ed7MVufWniL20_ts" transform="translate(112.400002,9.5) scale(0,0)"><path id="ed7MVufWniL20" d="M112.4,12.7C114.4,12.7,116.1,11.3,116.1,9.5C116.1,7.8,114.4,6.3,112.4,6.3C110.4,6.3,108.7,7.7,108.7,9.5C108.7,11.2,110.4,12.7,112.4,12.7ZM112.4,19C118.5,19,123.5,14.8,123.5,9.5C123.5,4.3,118.5,0,112.4,0C106.3,0,101.3,4.2,101.3,9.5C101.3,14.7,106.3,19,112.4,19Z" transform="translate(-112.400002,-9.5)" opacity="0" clip-rule="evenodd" fill="rgb(192,224,129)" fill-rule="evenodd" stroke="none" stroke-width="1"/></g><g id="ed7MVufWniL21_ts" transform="translate(125.099998,219.799988) scale(1,1)"><path id="ed7MVufWniL21" d="M125.1,223.5C127.1,223.5,128.8,221.8,128.8,219.8C128.8,217.8,127.1,216.1,125.1,216.1C123.1,216.1,121.4,217.8,121.4,219.8C121.4,221.9,123,223.5,125.1,223.5ZM125.1,230.9C131.2,230.9,136.2,225.9,136.2,219.8C136.2,213.7,131.2,208.7,125.1,208.7C119,208.7,114,213.7,114,219.8C114,226,119,230.9,125.1,230.9Z" transform="translate(-125.099998,-219.799988)" clip-rule="evenodd" fill="rgb(192,224,129)" fill-rule="evenodd" stroke="none" stroke-width="1"/></g><g id="ed7MVufWniL22_ts" transform="translate(874.502045,323.28894) scale(0,0)"><path id="ed7MVufWniL22" d="M858.6,318.9C858.8,314,860.9,310.6,865.1,309.2C869.1,307.9,872.9,308.9,875.1,312.9C876.1,314.8,877,314.7,878.8,314.1C882.9,312.8,886.6,313.7,888.9,317.6C891.3,321.7,890.8,325.7,887.6,329.2C882.9,334.3,876.4,336,870,337.8C869,338.1,868,337.8,867.4,337C863.1,331.5,859.1,325.8,858.6,318.9Z" transform="translate(-874.502045,-323.28894)" opacity="0" fill="rgb(129,192,3)" stroke="none" stroke-width="1"/></g><g id="ed7MVufWniL23_ts" transform="translate(323.302063,61.388945) scale(1,1)"><path id="ed7MVufWniL23" d="M307.4,57C307.6,52.1,309.7,48.7,313.9,47.3C317.9,46,321.7,47,323.9,51C324.9,52.9,325.8,52.8,327.6,52.2C331.7,50.9,335.4,51.8,337.7,55.7C340.1,59.8,339.6,63.8,336.4,67.3C331.7,72.4,325.2,74.1,318.8,75.9C317.8,76.2,316.8,75.9,316.2,75.1C311.9,69.7,307.9,64,307.4,57Z" transform="translate(-323.302063,-61.388945)" fill="rgb(129,192,3)" stroke="none" stroke-width="1"/></g><g id="ed7MVufWniL24_ts" transform="translate(248.604828,323.411621) scale(0,0)"><path id="ed7MVufWniL24" d="M236.5,331.7C233.1,328.2,232.1,324.3,234.1,320.3C236,316.5,239.3,314.5,243.7,315.7C245.8,316.3,246.3,315.6,247.2,313.9C249.1,310.1,252.3,308,256.7,309.1C261.3,310.2,263.9,313.4,264.1,318.1C264.5,325,261.2,330.9,258,336.7C257.5,337.7,256.6,338.1,255.6,338C248.7,337.2,241.8,336.1,236.5,331.7Z" transform="translate(-248.604828,-323.411621)" opacity="0" fill="rgb(129,192,3)" stroke="none" stroke-width="1"/></g></svg>