<svg id="epHBCNPeiGw1" xmlns="http://www.w3.org/2000/svg" xmlns:xlink="http://www.w3.org/1999/xlink" viewBox="0 0 1180 488" shape-rendering="geometricPrecision" text-rendering="geometricPrecision"><style><![CDATA[#epHBCNPeiGw2_to {animation: epHBCNPeiGw2_to__to 3000ms linear infinite normal forwards}@keyframes epHBCNPeiGw2_to__to { 0% {transform: translate(590.050014px,242.75px)} 33.333333% {transform: translate(590.050014px,-246.459259px)} 100% {transform: translate(590.050014px,-246.459259px)}} #epHBCNPeiGw27_to {animation: epHBCNPeiGw27_to__to 3000ms linear infinite normal forwards}@keyframes epHBCNPeiGw27_to__to { 0% {transform: translate(590.050014px,1120.804147px)} 100% {transform: translate(590.050014px,242.75px)}} #epHBCNPeiGw52_to {animation: epHBCNPeiGw52_to__to 3000ms linear infinite normal forwards}@keyframes epHBCNPeiGw52_to__to { 0% {transform: translate(590.050014px,736.325161px)} 66.666667% {transform: translate(590.050014px,-233.25px)} 100% {transform: translate(590.050014px,-233.25px)}}]]></style><g id="epHBCNPeiGw2_to" transform="translate(590.050014,242.75)"><g id="epHBCNPeiGw2" transform="translate(-590.050014,-242.75)"><g id="epHBCNPeiGw3" transform="matrix(1 0 0 1 0.000001 0)"><path id="epHBCNPeiGw4" d="M780.7,338.2L812.2,349.3L802.7,376.3L771.2,365.2L780.7,338.2Z" transform="matrix(0 0 0 0 791.700012 357.250015)" opacity="0" fill="none" stroke="none" stroke-width="1"/><g id="epHBCNPeiGw5" transform="matrix(1 0 0 1 0 0.000001)"><path id="epHBCNPeiGw6" d="M971.2,139.2C974.7,139.2,977.5,141.8,977.5,145.1L977.5,165C977.5,168.2,974.7,170.9,971.2,170.9C967.7,170.9,964.9,168.3,964.9,165L964.9,145C964.9,141.8,967.7,139.2,971.2,139.2Z" clip-rule="evenodd" fill="rgb(129,193,3)" fill-rule="evenodd" stroke="none" stroke-width="1"/><path id="epHBCNPeiGw7" d="M955.4,155C955.4,151.5,958,148.7,961.3,148.7L981.2,148.7C984.4,148.7,987.1,151.5,987.1,155C987.1,158.5,984.5,161.3,981.2,161.3L961.3,161.3C958,161.3,955.4,158.5,955.4,155Z" clip-rule="evenodd" fill="rgb(129,193,3)" fill-rule="evenodd" stroke="none" stroke-width="1"/></g><g id="epHBCNPeiGw8" transform="matrix(1 0 0 1 0.000001 0.000001)"><path id="epHBCNPeiGw9" d="M174.1,180.3C177.6,180.3,180.4,182.9,180.4,186.2L180.4,206.1C180.4,209.3,177.6,212,174.1,212C170.6,212,167.8,209.4,167.8,206.1L167.8,186.2C167.8,182.9,170.6,180.3,174.1,180.3Z" transform="matrix(0 0 0 0 174.100006 196.149994)" opacity="0" clip-rule="evenodd" fill="rgb(129,193,3)" fill-rule="evenodd" stroke="none" stroke-width="1"/><path id="epHBCNPeiGw10" d="M158.3,196.1C158.3,192.6,160.9,189.8,164.2,189.8L184.1,189.8C187.3,189.8,190,192.6,190,196.1C190,199.6,187.4,202.4,184.1,202.4L164.2,202.4C160.9,202.4,158.3,199.6,158.3,196.1Z" transform="matrix(0 0 0 0 174.149994 196.100006)" opacity="0" clip-rule="evenodd" fill="rgb(129,193,3)" fill-rule="evenodd" stroke="none" stroke-width="1"/></g><g id="epHBCNPeiGw11"><path id="epHBCNPeiGw12" d="M1050.3,3.2C1053.8,3.2,1056.6,5.8,1056.6,9.1L1056.6,29C1056.6,32.2,1053.8,34.9,1050.3,34.9C1046.8,34.9,1044,32.3,1044,29L1044,9C1044,5.8,1046.8,3.2,1050.3,3.2Z" transform="matrix(0 0 0 0 1050.300049 19.05)" opacity="0" clip-rule="evenodd" fill="rgb(192,224,129)" fill-rule="evenodd" stroke="none" stroke-width="1"/><path id="epHBCNPeiGw13" d="M1034.5,19C1034.5,15.5,1037.1,12.7,1040.4,12.7L1060.3,12.7C1063.5,12.7,1066.1,15.5,1066.1,19C1066.1,22.5,1063.5,25.3,1060.3,25.3L1040.4,25.3C1037.1,25.3,1034.5,22.5,1034.5,19Z" transform="matrix(0 0 0 0 1050.300049 19)" opacity="0" clip-rule="evenodd" fill="rgb(192,224,129)" fill-rule="evenodd" stroke="none" stroke-width="1"/></g><g id="epHBCNPeiGw14" transform="matrix(1 0 0 1 0.000001 0)"><path id="epHBCNPeiGw15" d="M15.9,332.1C19.4,332.1,22.2,334.7,22.2,338L22.2,357.9C22.2,361.1,19.4,363.8,15.9,363.8C12.4,363.8,9.6,361.2,9.6,357.9L9.6,338C9.6,334.8,12.4,332.1,15.9,332.1Z" clip-rule="evenodd" fill="rgb(234,234,234)" fill-rule="evenodd" stroke="none" stroke-width="1"/><path id="epHBCNPeiGw16" d="M0.1,348C0.1,344.5,2.7,341.7,6,341.7L25.9,341.7C29.1,341.7,31.8,344.5,31.8,348C31.8,351.5,29.2,354.3,25.9,354.3L6,354.3C2.7,354.3,0.1,351.4,0.1,348Z" clip-rule="evenodd" fill="rgb(234,234,234)" fill-rule="evenodd" stroke="none" stroke-width="1"/></g></g><path id="epHBCNPeiGw17" d="M234.8,395.5L266.4,384.9L275.5,412L243.9,422.6L234.8,395.5Z" fill="none" stroke="none" stroke-width="1"/><path id="epHBCNPeiGw18" d="M277,7L307.4,20.8L295.6,46.8L265.2,33L277,7Z" transform="matrix(0 0 0 0 286.300003 26.9)" opacity="0" fill="none" stroke="none" stroke-width="1"/><path id="epHBCNPeiGw19" d="M928.5,191.9C930.5,191.9,932.2,190.2,932.2,188.2C932.2,186.2,930.5,184.5,928.5,184.5C926.5,184.5,924.8,186.2,924.8,188.2C924.8,190.2,926.5,191.9,928.5,191.9ZM928.5,199.3C934.6,199.3,939.6,194.3,939.6,188.2C939.6,182.1,934.6,177.1,928.5,177.1C922.4,177.1,917.4,182.1,917.4,188.2C917.5,194.3,922.4,199.3,928.5,199.3Z" clip-rule="evenodd" fill="rgb(129,193,3)" fill-rule="evenodd" stroke="none" stroke-width="1"/><path id="epHBCNPeiGw20" d="M1070.9,479.8C1072.9,479.8,1074.6,478.1,1074.6,476.1C1074.6,474.1,1072.9,472.4,1070.9,472.4C1068.9,472.4,1067.2,474.1,1067.2,476.1C1067.2,478.1,1068.8,479.8,1070.9,479.8ZM1070.9,487.1C1077,487.1,1082,482.1,1082,476C1082,469.9,1077,464.9,1070.9,464.9C1064.8,464.9,1059.8,469.9,1059.8,476C1059.8,482.2,1064.8,487.1,1070.9,487.1Z" transform="matrix(0 0 0 0 1070.900024 476)" opacity="0" clip-rule="evenodd" fill="rgb(192,224,129)" fill-rule="evenodd" stroke="none" stroke-width="1"/><path id="epHBCNPeiGw21" d="M1168.9,318.4C1170.9,318.4,1172.6,316.7,1172.6,314.7C1172.6,312.7,1170.9,311,1168.9,311C1166.9,311,1165.2,312.7,1165.2,314.7C1165.2,316.8,1166.9,318.4,1168.9,318.4ZM1168.9,325.8C1175,325.8,1180,320.8,1180,314.7C1180,308.6,1175,303.6,1168.9,303.6C1162.8,303.6,1157.8,308.6,1157.8,314.7C1157.9,320.9,1162.8,325.8,1168.9,325.8Z" clip-rule="evenodd" fill="rgb(234,234,234)" fill-rule="evenodd" stroke="none" stroke-width="1"/><path id="epHBCNPeiGw22" d="M112.4,12.7C114.4,12.7,116.1,11.3,116.1,9.5C116.1,7.8,114.4,6.3,112.4,6.3C110.4,6.3,108.7,7.7,108.7,9.5C108.7,11.2,110.4,12.7,112.4,12.7ZM112.4,19C118.5,19,123.5,14.8,123.5,9.5C123.5,4.3,118.5,0,112.4,0C106.3,0,101.3,4.2,101.3,9.5C101.3,14.7,106.3,19,112.4,19Z" transform="matrix(0 0 0 0 112.400002 9.5)" opacity="0" clip-rule="evenodd" fill="rgb(192,224,129)" fill-rule="evenodd" stroke="none" stroke-width="1"/><path id="epHBCNPeiGw23" d="M125.1,223.5C127.1,223.5,128.8,221.8,128.8,219.8C128.8,217.8,127.1,216.1,125.1,216.1C123.1,216.1,121.4,217.8,121.4,219.8C121.4,221.9,123,223.5,125.1,223.5ZM125.1,230.9C131.2,230.9,136.2,225.9,136.2,219.8C136.2,213.7,131.2,208.7,125.1,208.7C119,208.7,114,213.7,114,219.8C114,226,119,230.9,125.1,230.9Z" clip-rule="evenodd" fill="rgb(192,224,129)" fill-rule="evenodd" stroke="none" stroke-width="1"/><path id="epHBCNPeiGw24" d="M858.6,318.9C858.8,314,860.9,310.6,865.1,309.2C869.1,307.9,872.9,308.9,875.1,312.9C876.1,314.8,877,314.7,878.8,314.1C882.9,312.8,886.6,313.7,888.9,317.6C891.3,321.7,890.8,325.7,887.6,329.2C882.9,334.3,876.4,336,870,337.8C869,338.1,868,337.8,867.4,337C863.1,331.5,859.1,325.8,858.6,318.9Z" transform="matrix(0 0 0 0 874.502045 323.28894)" opacity="0" fill="rgb(129,192,3)" stroke="none" stroke-width="1"/><path id="epHBCNPeiGw25" d="M307.4,57C307.6,52.1,309.7,48.7,313.9,47.3C317.9,46,321.7,47,323.9,51C324.9,52.9,325.8,52.8,327.6,52.2C331.7,50.9,335.4,51.8,337.7,55.7C340.1,59.8,339.6,63.8,336.4,67.3C331.7,72.4,325.2,74.1,318.8,75.9C317.8,76.2,316.8,75.9,316.2,75.1C311.9,69.7,307.9,64,307.4,57Z" fill="rgb(129,192,3)" stroke="none" stroke-width="1"/><path id="epHBCNPeiGw26" d="M236.5,331.7C233.1,328.2,232.1,324.3,234.1,320.3C236,316.5,239.3,314.5,243.7,315.7C245.8,316.3,246.3,315.6,247.2,313.9C249.1,310.1,252.3,308,256.7,309.1C261.3,310.2,263.9,313.4,264.1,318.1C264.5,325,261.2,330.9,258,336.7C257.5,337.7,256.6,338.1,255.6,338C248.7,337.2,241.8,336.1,236.5,331.7Z" transform="matrix(0 0 0 0 248.604828 323.411621)" opacity="0" fill="rgb(129,192,3)" stroke="none" stroke-width="1"/></g></g><g id="epHBCNPeiGw27_to" transform="translate(590.050014,1120.804147)"><g id="epHBCNPeiGw27" transform="translate(-590.050014,-242.75)"><g id="epHBCNPeiGw28" transform="matrix(1 0 0 1 0.000001 0)"><path id="epHBCNPeiGw29" d="M780.7,338.2L812.2,349.3L802.7,376.3L771.2,365.2L780.7,338.2Z" transform="matrix(0 0 0 0 791.700012 357.250015)" opacity="0" fill="none" stroke="none" stroke-width="1"/><g id="epHBCNPeiGw30" transform="matrix(1 0 0 1 0 0.000001)"><path id="epHBCNPeiGw31" d="M971.2,139.2C974.7,139.2,977.5,141.8,977.5,145.1L977.5,165C977.5,168.2,974.7,170.9,971.2,170.9C967.7,170.9,964.9,168.3,964.9,165L964.9,145C964.9,141.8,967.7,139.2,971.2,139.2Z" clip-rule="evenodd" fill="rgb(129,193,3)" fill-rule="evenodd" stroke="none" stroke-width="1"/><path id="epHBCNPeiGw32" d="M955.4,155C955.4,151.5,958,148.7,961.3,148.7L981.2,148.7C984.4,148.7,987.1,151.5,987.1,155C987.1,158.5,984.5,161.3,981.2,161.3L961.3,161.3C958,161.3,955.4,158.5,955.4,155Z" clip-rule="evenodd" fill="rgb(129,193,3)" fill-rule="evenodd" stroke="none" stroke-width="1"/></g><g id="epHBCNPeiGw33" transform="matrix(1 0 0 1 0.000001 0.000001)"><path id="epHBCNPeiGw34" d="M174.1,180.3C177.6,180.3,180.4,182.9,180.4,186.2L180.4,206.1C180.4,209.3,177.6,212,174.1,212C170.6,212,167.8,209.4,167.8,206.1L167.8,186.2C167.8,182.9,170.6,180.3,174.1,180.3Z" transform="matrix(0 0 0 0 174.100006 196.149994)" opacity="0" clip-rule="evenodd" fill="rgb(129,193,3)" fill-rule="evenodd" stroke="none" stroke-width="1"/><path id="epHBCNPeiGw35" d="M158.3,196.1C158.3,192.6,160.9,189.8,164.2,189.8L184.1,189.8C187.3,189.8,190,192.6,190,196.1C190,199.6,187.4,202.4,184.1,202.4L164.2,202.4C160.9,202.4,158.3,199.6,158.3,196.1Z" transform="matrix(0 0 0 0 174.149994 196.100006)" opacity="0" clip-rule="evenodd" fill="rgb(129,193,3)" fill-rule="evenodd" stroke="none" stroke-width="1"/></g><g id="epHBCNPeiGw36"><path id="epHBCNPeiGw37" d="M1050.3,3.2C1053.8,3.2,1056.6,5.8,1056.6,9.1L1056.6,29C1056.6,32.2,1053.8,34.9,1050.3,34.9C1046.8,34.9,1044,32.3,1044,29L1044,9C1044,5.8,1046.8,3.2,1050.3,3.2Z" transform="matrix(0 0 0 0 1050.300049 19.05)" opacity="0" clip-rule="evenodd" fill="rgb(192,224,129)" fill-rule="evenodd" stroke="none" stroke-width="1"/><path id="epHBCNPeiGw38" d="M1034.5,19C1034.5,15.5,1037.1,12.7,1040.4,12.7L1060.3,12.7C1063.5,12.7,1066.1,15.5,1066.1,19C1066.1,22.5,1063.5,25.3,1060.3,25.3L1040.4,25.3C1037.1,25.3,1034.5,22.5,1034.5,19Z" transform="matrix(0 0 0 0 1050.300049 19)" opacity="0" clip-rule="evenodd" fill="rgb(192,224,129)" fill-rule="evenodd" stroke="none" stroke-width="1"/></g><g id="epHBCNPeiGw39" transform="matrix(1 0 0 1 0.000001 0)"><path id="epHBCNPeiGw40" d="M15.9,332.1C19.4,332.1,22.2,334.7,22.2,338L22.2,357.9C22.2,361.1,19.4,363.8,15.9,363.8C12.4,363.8,9.6,361.2,9.6,357.9L9.6,338C9.6,334.8,12.4,332.1,15.9,332.1Z" clip-rule="evenodd" fill="rgb(234,234,234)" fill-rule="evenodd" stroke="none" stroke-width="1"/><path id="epHBCNPeiGw41" d="M0.1,348C0.1,344.5,2.7,341.7,6,341.7L25.9,341.7C29.1,341.7,31.8,344.5,31.8,348C31.8,351.5,29.2,354.3,25.9,354.3L6,354.3C2.7,354.3,0.1,351.4,0.1,348Z" clip-rule="evenodd" fill="rgb(234,234,234)" fill-rule="evenodd" stroke="none" stroke-width="1"/></g></g><path id="epHBCNPeiGw42" d="M234.8,395.5L266.4,384.9L275.5,412L243.9,422.6L234.8,395.5Z" fill="none" stroke="none" stroke-width="1"/><path id="epHBCNPeiGw43" d="M277,7L307.4,20.8L295.6,46.8L265.2,33L277,7Z" transform="matrix(0 0 0 0 286.300003 26.9)" opacity="0" fill="none" stroke="none" stroke-width="1"/><path id="epHBCNPeiGw44" d="M928.5,191.9C930.5,191.9,932.2,190.2,932.2,188.2C932.2,186.2,930.5,184.5,928.5,184.5C926.5,184.5,924.8,186.2,924.8,188.2C924.8,190.2,926.5,191.9,928.5,191.9ZM928.5,199.3C934.6,199.3,939.6,194.3,939.6,188.2C939.6,182.1,934.6,177.1,928.5,177.1C922.4,177.1,917.4,182.1,917.4,188.2C917.5,194.3,922.4,199.3,928.5,199.3Z" clip-rule="evenodd" fill="rgb(129,193,3)" fill-rule="evenodd" stroke="none" stroke-width="1"/><path id="epHBCNPeiGw45" d="M1070.9,479.8C1072.9,479.8,1074.6,478.1,1074.6,476.1C1074.6,474.1,1072.9,472.4,1070.9,472.4C1068.9,472.4,1067.2,474.1,1067.2,476.1C1067.2,478.1,1068.8,479.8,1070.9,479.8ZM1070.9,487.1C1077,487.1,1082,482.1,1082,476C1082,469.9,1077,464.9,1070.9,464.9C1064.8,464.9,1059.8,469.9,1059.8,476C1059.8,482.2,1064.8,487.1,1070.9,487.1Z" transform="matrix(0 0 0 0 1070.900024 476)" opacity="0" clip-rule="evenodd" fill="rgb(192,224,129)" fill-rule="evenodd" stroke="none" stroke-width="1"/><path id="epHBCNPeiGw46" d="M1168.9,318.4C1170.9,318.4,1172.6,316.7,1172.6,314.7C1172.6,312.7,1170.9,311,1168.9,311C1166.9,311,1165.2,312.7,1165.2,314.7C1165.2,316.8,1166.9,318.4,1168.9,318.4ZM1168.9,325.8C1175,325.8,1180,320.8,1180,314.7C1180,308.6,1175,303.6,1168.9,303.6C1162.8,303.6,1157.8,308.6,1157.8,314.7C1157.9,320.9,1162.8,325.8,1168.9,325.8Z" clip-rule="evenodd" fill="rgb(234,234,234)" fill-rule="evenodd" stroke="none" stroke-width="1"/><path id="epHBCNPeiGw47" d="M112.4,12.7C114.4,12.7,116.1,11.3,116.1,9.5C116.1,7.8,114.4,6.3,112.4,6.3C110.4,6.3,108.7,7.7,108.7,9.5C108.7,11.2,110.4,12.7,112.4,12.7ZM112.4,19C118.5,19,123.5,14.8,123.5,9.5C123.5,4.3,118.5,0,112.4,0C106.3,0,101.3,4.2,101.3,9.5C101.3,14.7,106.3,19,112.4,19Z" transform="matrix(0 0 0 0 112.400002 9.5)" opacity="0" clip-rule="evenodd" fill="rgb(192,224,129)" fill-rule="evenodd" stroke="none" stroke-width="1"/><path id="epHBCNPeiGw48" d="M125.1,223.5C127.1,223.5,128.8,221.8,128.8,219.8C128.8,217.8,127.1,216.1,125.1,216.1C123.1,216.1,121.4,217.8,121.4,219.8C121.4,221.9,123,223.5,125.1,223.5ZM125.1,230.9C131.2,230.9,136.2,225.9,136.2,219.8C136.2,213.7,131.2,208.7,125.1,208.7C119,208.7,114,213.7,114,219.8C114,226,119,230.9,125.1,230.9Z" clip-rule="evenodd" fill="rgb(192,224,129)" fill-rule="evenodd" stroke="none" stroke-width="1"/><path id="epHBCNPeiGw49" d="M858.6,318.9C858.8,314,860.9,310.6,865.1,309.2C869.1,307.9,872.9,308.9,875.1,312.9C876.1,314.8,877,314.7,878.8,314.1C882.9,312.8,886.6,313.7,888.9,317.6C891.3,321.7,890.8,325.7,887.6,329.2C882.9,334.3,876.4,336,870,337.8C869,338.1,868,337.8,867.4,337C863.1,331.5,859.1,325.8,858.6,318.9Z" transform="matrix(0 0 0 0 874.502045 323.28894)" opacity="0" fill="rgb(129,192,3)" stroke="none" stroke-width="1"/><path id="epHBCNPeiGw50" d="M307.4,57C307.6,52.1,309.7,48.7,313.9,47.3C317.9,46,321.7,47,323.9,51C324.9,52.9,325.8,52.8,327.6,52.2C331.7,50.9,335.4,51.8,337.7,55.7C340.1,59.8,339.6,63.8,336.4,67.3C331.7,72.4,325.2,74.1,318.8,75.9C317.8,76.2,316.8,75.9,316.2,75.1C311.9,69.7,307.9,64,307.4,57Z" fill="rgb(129,192,3)" stroke="none" stroke-width="1"/><path id="epHBCNPeiGw51" d="M236.5,331.7C233.1,328.2,232.1,324.3,234.1,320.3C236,316.5,239.3,314.5,243.7,315.7C245.8,316.3,246.3,315.6,247.2,313.9C249.1,310.1,252.3,308,256.7,309.1C261.3,310.2,263.9,313.4,264.1,318.1C264.5,325,261.2,330.9,258,336.7C257.5,337.7,256.6,338.1,255.6,338C248.7,337.2,241.8,336.1,236.5,331.7Z" transform="matrix(0 0 0 0 248.604828 323.411621)" opacity="0" fill="rgb(129,192,3)" stroke="none" stroke-width="1"/></g></g><g id="epHBCNPeiGw52_to" transform="translate(590.050014,736.325161)"><g id="epHBCNPeiGw52" transform="scale(-1,1) translate(-590.050014,-242.75)"><g id="epHBCNPeiGw53" transform="matrix(1 0 0 1 0.000001 0)"><path id="epHBCNPeiGw54" d="M780.7,338.2L812.2,349.3L802.7,376.3L771.2,365.2L780.7,338.2Z" transform="matrix(0 0 0 0 791.700012 357.250015)" opacity="0" fill="none" stroke="none" stroke-width="1"/><g id="epHBCNPeiGw55" transform="matrix(1 0 0 1 0 0.000001)"><path id="epHBCNPeiGw56" d="M971.2,139.2C974.7,139.2,977.5,141.8,977.5,145.1L977.5,165C977.5,168.2,974.7,170.9,971.2,170.9C967.7,170.9,964.9,168.3,964.9,165L964.9,145C964.9,141.8,967.7,139.2,971.2,139.2Z" clip-rule="evenodd" fill="rgb(129,193,3)" fill-rule="evenodd" stroke="none" stroke-width="1"/><path id="epHBCNPeiGw57" d="M955.4,155C955.4,151.5,958,148.7,961.3,148.7L981.2,148.7C984.4,148.7,987.1,151.5,987.1,155C987.1,158.5,984.5,161.3,981.2,161.3L961.3,161.3C958,161.3,955.4,158.5,955.4,155Z" clip-rule="evenodd" fill="rgb(129,193,3)" fill-rule="evenodd" stroke="none" stroke-width="1"/></g><g id="epHBCNPeiGw58" transform="matrix(1 0 0 1 0.000001 0.000001)"><path id="epHBCNPeiGw59" d="M174.1,180.3C177.6,180.3,180.4,182.9,180.4,186.2L180.4,206.1C180.4,209.3,177.6,212,174.1,212C170.6,212,167.8,209.4,167.8,206.1L167.8,186.2C167.8,182.9,170.6,180.3,174.1,180.3Z" transform="matrix(0 0 0 0 174.100006 196.149994)" opacity="0" clip-rule="evenodd" fill="rgb(129,193,3)" fill-rule="evenodd" stroke="none" stroke-width="1"/><path id="epHBCNPeiGw60" d="M158.3,196.1C158.3,192.6,160.9,189.8,164.2,189.8L184.1,189.8C187.3,189.8,190,192.6,190,196.1C190,199.6,187.4,202.4,184.1,202.4L164.2,202.4C160.9,202.4,158.3,199.6,158.3,196.1Z" transform="matrix(0 0 0 0 174.149994 196.100006)" opacity="0" clip-rule="evenodd" fill="rgb(129,193,3)" fill-rule="evenodd" stroke="none" stroke-width="1"/></g><g id="epHBCNPeiGw61"><path id="epHBCNPeiGw62" d="M1050.3,3.2C1053.8,3.2,1056.6,5.8,1056.6,9.1L1056.6,29C1056.6,32.2,1053.8,34.9,1050.3,34.9C1046.8,34.9,1044,32.3,1044,29L1044,9C1044,5.8,1046.8,3.2,1050.3,3.2Z" transform="matrix(0 0 0 0 1050.300049 19.05)" opacity="0" clip-rule="evenodd" fill="rgb(192,224,129)" fill-rule="evenodd" stroke="none" stroke-width="1"/><path id="epHBCNPeiGw63" d="M1034.5,19C1034.5,15.5,1037.1,12.7,1040.4,12.7L1060.3,12.7C1063.5,12.7,1066.1,15.5,1066.1,19C1066.1,22.5,1063.5,25.3,1060.3,25.3L1040.4,25.3C1037.1,25.3,1034.5,22.5,1034.5,19Z" transform="matrix(0 0 0 0 1050.300049 19)" opacity="0" clip-rule="evenodd" fill="rgb(192,224,129)" fill-rule="evenodd" stroke="none" stroke-width="1"/></g><g id="epHBCNPeiGw64" transform="matrix(1 0 0 1 0.000001 0)"><path id="epHBCNPeiGw65" d="M15.9,332.1C19.4,332.1,22.2,334.7,22.2,338L22.2,357.9C22.2,361.1,19.4,363.8,15.9,363.8C12.4,363.8,9.6,361.2,9.6,357.9L9.6,338C9.6,334.8,12.4,332.1,15.9,332.1Z" clip-rule="evenodd" fill="rgb(234,234,234)" fill-rule="evenodd" stroke="none" stroke-width="1"/><path id="epHBCNPeiGw66" d="M0.1,348C0.1,344.5,2.7,341.7,6,341.7L25.9,341.7C29.1,341.7,31.8,344.5,31.8,348C31.8,351.5,29.2,354.3,25.9,354.3L6,354.3C2.7,354.3,0.1,351.4,0.1,348Z" clip-rule="evenodd" fill="rgb(234,234,234)" fill-rule="evenodd" stroke="none" stroke-width="1"/></g></g><path id="epHBCNPeiGw67" d="M234.8,395.5L266.4,384.9L275.5,412L243.9,422.6L234.8,395.5Z" fill="none" stroke="none" stroke-width="1"/><path id="epHBCNPeiGw68" d="M277,7L307.4,20.8L295.6,46.8L265.2,33L277,7Z" transform="matrix(0 0 0 0 286.300003 26.9)" opacity="0" fill="none" stroke="none" stroke-width="1"/><path id="epHBCNPeiGw69" d="M928.5,191.9C930.5,191.9,932.2,190.2,932.2,188.2C932.2,186.2,930.5,184.5,928.5,184.5C926.5,184.5,924.8,186.2,924.8,188.2C924.8,190.2,926.5,191.9,928.5,191.9ZM928.5,199.3C934.6,199.3,939.6,194.3,939.6,188.2C939.6,182.1,934.6,177.1,928.5,177.1C922.4,177.1,917.4,182.1,917.4,188.2C917.5,194.3,922.4,199.3,928.5,199.3Z" clip-rule="evenodd" fill="rgb(129,193,3)" fill-rule="evenodd" stroke="none" stroke-width="1"/><path id="epHBCNPeiGw70" d="M1070.9,479.8C1072.9,479.8,1074.6,478.1,1074.6,476.1C1074.6,474.1,1072.9,472.4,1070.9,472.4C1068.9,472.4,1067.2,474.1,1067.2,476.1C1067.2,478.1,1068.8,479.8,1070.9,479.8ZM1070.9,487.1C1077,487.1,1082,482.1,1082,476C1082,469.9,1077,464.9,1070.9,464.9C1064.8,464.9,1059.8,469.9,1059.8,476C1059.8,482.2,1064.8,487.1,1070.9,487.1Z" transform="matrix(0 0 0 0 1070.900024 476)" opacity="0" clip-rule="evenodd" fill="rgb(192,224,129)" fill-rule="evenodd" stroke="none" stroke-width="1"/><path id="epHBCNPeiGw71" d="M1168.9,318.4C1170.9,318.4,1172.6,316.7,1172.6,314.7C1172.6,312.7,1170.9,311,1168.9,311C1166.9,311,1165.2,312.7,1165.2,314.7C1165.2,316.8,1166.9,318.4,1168.9,318.4ZM1168.9,325.8C1175,325.8,1180,320.8,1180,314.7C1180,308.6,1175,303.6,1168.9,303.6C1162.8,303.6,1157.8,308.6,1157.8,314.7C1157.9,320.9,1162.8,325.8,1168.9,325.8Z" clip-rule="evenodd" fill="rgb(234,234,234)" fill-rule="evenodd" stroke="none" stroke-width="1"/><path id="epHBCNPeiGw72" d="M112.4,12.7C114.4,12.7,116.1,11.3,116.1,9.5C116.1,7.8,114.4,6.3,112.4,6.3C110.4,6.3,108.7,7.7,108.7,9.5C108.7,11.2,110.4,12.7,112.4,12.7ZM112.4,19C118.5,19,123.5,14.8,123.5,9.5C123.5,4.3,118.5,0,112.4,0C106.3,0,101.3,4.2,101.3,9.5C101.3,14.7,106.3,19,112.4,19Z" transform="matrix(0 0 0 0 112.400002 9.5)" opacity="0" clip-rule="evenodd" fill="rgb(192,224,129)" fill-rule="evenodd" stroke="none" stroke-width="1"/><path id="epHBCNPeiGw73" d="M125.1,223.5C127.1,223.5,128.8,221.8,128.8,219.8C128.8,217.8,127.1,216.1,125.1,216.1C123.1,216.1,121.4,217.8,121.4,219.8C121.4,221.9,123,223.5,125.1,223.5ZM125.1,230.9C131.2,230.9,136.2,225.9,136.2,219.8C136.2,213.7,131.2,208.7,125.1,208.7C119,208.7,114,213.7,114,219.8C114,226,119,230.9,125.1,230.9Z" clip-rule="evenodd" fill="rgb(192,224,129)" fill-rule="evenodd" stroke="none" stroke-width="1"/><path id="epHBCNPeiGw74" d="M858.6,318.9C858.8,314,860.9,310.6,865.1,309.2C869.1,307.9,872.9,308.9,875.1,312.9C876.1,314.8,877,314.7,878.8,314.1C882.9,312.8,886.6,313.7,888.9,317.6C891.3,321.7,890.8,325.7,887.6,329.2C882.9,334.3,876.4,336,870,337.8C869,338.1,868,337.8,867.4,337C863.1,331.5,859.1,325.8,858.6,318.9Z" transform="matrix(0 0 0 0 874.502045 323.28894)" opacity="0" fill="rgb(129,192,3)" stroke="none" stroke-width="1"/><path id="epHBCNPeiGw75" d="M307.4,57C307.6,52.1,309.7,48.7,313.9,47.3C317.9,46,321.7,47,323.9,51C324.9,52.9,325.8,52.8,327.6,52.2C331.7,50.9,335.4,51.8,337.7,55.7C340.1,59.8,339.6,63.8,336.4,67.3C331.7,72.4,325.2,74.1,318.8,75.9C317.8,76.2,316.8,75.9,316.2,75.1C311.9,69.7,307.9,64,307.4,57Z" fill="rgb(129,192,3)" stroke="none" stroke-width="1"/><path id="epHBCNPeiGw76" d="M236.5,331.7C233.1,328.2,232.1,324.3,234.1,320.3C236,316.5,239.3,314.5,243.7,315.7C245.8,316.3,246.3,315.6,247.2,313.9C249.1,310.1,252.3,308,256.7,309.1C261.3,310.2,263.9,313.4,264.1,318.1C264.5,325,261.2,330.9,258,336.7C257.5,337.7,256.6,338.1,255.6,338C248.7,337.2,241.8,336.1,236.5,331.7Z" transform="matrix(0 0 0 0 248.604828 323.411621)" opacity="0" fill="rgb(129,192,3)" stroke="none" stroke-width="1"/></g></g></svg>