<svg width="46" height="48" viewBox="0 0 46 48" fill="none" xmlns="http://www.w3.org/2000/svg">
<path d="M30.1176 17.4545C27.1393 17.4545 24.2278 18.3503 21.7514 20.0285C19.275 21.7066 17.3449 24.0919 16.2051 26.8826C15.0653 29.6734 14.7671 32.7442 15.3482 35.7068C15.9292 38.6694 17.3634 41.3908 19.4695 43.5267C21.5755 45.6626 24.2587 47.1172 27.1798 47.7065C30.1009 48.2958 33.1288 47.9934 35.8804 46.8374C38.632 45.6815 40.9839 43.7239 42.6386 41.2123C44.2933 38.7008 45.1765 35.7479 45.1765 32.7273C45.1765 28.6767 43.5899 24.792 40.7658 21.9278C37.9418 19.0636 34.1115 17.4545 30.1176 17.4545ZM30.1176 43.6364C27.9903 43.6364 25.9106 42.9965 24.1418 41.7978C22.3729 40.5991 20.9942 38.8954 20.1801 36.902C19.366 34.9086 19.153 32.7152 19.568 30.599C19.9831 28.4829 21.0075 26.539 22.5118 25.0134C24.0161 23.4877 25.9327 22.4487 28.0192 22.0278C30.1057 21.6069 32.2685 21.8229 34.2339 22.6486C36.1994 23.4743 37.8793 24.8725 39.0612 26.6665C40.2431 28.4605 40.874 30.5697 40.874 32.7273C40.874 34.1599 40.5957 35.5784 40.0552 36.902C39.5146 38.2255 38.7223 39.4282 37.7235 40.4412C36.7247 41.4542 35.5389 42.2577 34.2339 42.806C32.9289 43.3542 31.5302 43.6364 30.1176 43.6364ZM21.5126 13.0909C21.5126 10.9333 20.8818 8.82413 19.6998 7.03014C18.5179 5.23615 16.838 3.83791 14.8726 3.01223C12.9071 2.18654 10.7444 1.97051 8.65786 2.39144C6.57134 2.81237 4.65475 3.85136 3.15045 5.37702C1.64616 6.90268 0.621718 8.8465 0.206684 10.9627C-0.20835 13.0788 0.00466053 15.2723 0.81878 17.2656C1.6329 19.259 3.01156 20.9628 4.78043 22.1615C6.54929 23.3602 8.62891 24 10.7563 24C12.1688 24 13.5676 23.7178 14.8726 23.1696C16.1776 22.6214 17.3633 21.8178 18.3622 20.8048C19.361 19.7918 20.1533 18.5892 20.6938 17.2656C21.2344 15.9421 21.5126 14.5235 21.5126 13.0909ZM10.7563 19.6364C9.47987 19.6364 8.2321 19.2525 7.17078 18.5333C6.10946 17.814 5.28226 16.7918 4.79379 15.5957C4.30532 14.3997 4.17751 13.0836 4.42653 11.814C4.67555 10.5443 5.29022 9.37797 6.19279 8.46257C7.09537 7.54718 8.24533 6.92378 9.49724 6.67123C10.7491 6.41867 12.0468 6.54829 13.2261 7.0437C14.4053 7.53911 15.4133 8.37806 16.1224 9.45445C16.8316 10.5308 17.2101 11.7963 17.2101 13.0909C17.2101 14.8269 16.5301 16.4917 15.3198 17.7192C14.1095 18.9468 12.468 19.6364 10.7563 19.6364ZM31.1933 15.2727C32.6825 15.2727 34.1382 14.8249 35.3764 13.9858C36.6146 13.1467 37.5797 11.954 38.1495 10.5587C38.7194 9.16331 38.8685 7.62789 38.578 6.14658C38.2875 4.66528 37.5704 3.30461 36.5174 2.23664C35.4644 1.16868 34.1228 0.441385 32.6622 0.146734C31.2016 -0.147917 29.6877 0.00330871 28.3119 0.581287C26.9361 1.15926 25.7601 2.13804 24.9328 3.39383C24.1055 4.64962 23.6639 6.12603 23.6639 7.63636C23.6639 9.66165 24.4571 11.604 25.8692 13.0361C27.2812 14.4682 29.1964 15.2727 31.1933 15.2727ZM31.1933 4.36364C31.8315 4.36364 32.4554 4.55558 32.986 4.91519C33.5167 5.2748 33.9303 5.78593 34.1745 6.38395C34.4188 6.98196 34.4827 7.63999 34.3582 8.27484C34.2337 8.90969 33.9263 9.49283 33.475 9.95053C33.0237 10.4082 32.4488 10.7199 31.8228 10.8462C31.1969 10.9725 30.548 10.9077 29.9584 10.66C29.3688 10.4123 28.8648 9.99279 28.5102 9.45459C28.1556 8.9164 27.9664 8.28365 27.9664 7.63636C27.9664 6.76838 28.3064 5.93595 28.9115 5.3222C29.5167 4.70844 30.3375 4.36364 31.1933 4.36364Z" fill="white"/>
<circle cx="30" cy="33" r="12" fill="white"/>
<circle cx="12" cy="13" r="8" fill="white"/>
</svg>
