<svg width="27" height="48" viewBox="0 0 27 48" fill="none" xmlns="http://www.w3.org/2000/svg">
<path d="M24.1812 25.9354L19.2273 19.1162L18.255 25.2699L20.6184 28.5229C21.0495 29.1165 21.7209 29.4306 22.402 29.4306C22.8507 29.4306 23.3038 29.2941 23.6943 29.0103C24.6778 28.2959 24.8961 26.9194 24.1812 25.9354Z" fill="white"/>
<path d="M19.1691 4.40389C19.1691 6.83631 17.1976 8.80779 14.7652 8.80779C12.3328 8.80779 10.3613 6.83631 10.3613 4.40389C10.3613 1.97148 12.3328 0 14.7652 0C17.1976 0 19.1691 1.97148 19.1691 4.40389Z" fill="white"/>
<path d="M10.8843 35.8011L5.15584 43.733C4.28534 44.9378 4.55691 46.62 5.76162 47.4905C6.23822 47.8345 6.7892 47.9999 7.33528 47.9999C8.17006 47.9999 8.9931 47.6129 9.51912 46.8843L14.2044 40.3978L10.8843 35.8011Z" fill="white"/>
<path d="M25.6668 43.7327L15.5613 29.7405L17.6488 16.5665C17.6727 16.4158 17.6884 16.2661 17.6967 16.1169C17.9008 13.3546 15.9596 10.8508 13.1744 10.4099C11.4192 10.132 9.89107 10.9291 8.55571 11.8989L2.20872 16.5098C1.73604 16.8533 1.41945 17.37 1.32794 17.9469L0.0273274 26.1631C-0.162529 27.3644 0.657084 28.4923 1.85788 28.6821C1.97434 28.7007 2.09031 28.71 2.20481 28.71C3.26908 28.71 4.20515 27.9364 4.3769 26.8521L5.53513 19.5362L8.61541 17.2981L7.34513 25.342C7.1264 26.7249 7.44299 27.6932 8.08205 28.5784L21.303 46.8844C21.829 47.6125 22.6526 47.9996 23.4874 47.9996C24.0329 47.9996 24.5844 47.8342 25.061 47.4902C26.2657 46.6202 26.5373 44.9379 25.6668 43.7327Z" fill="white"/>
</svg>
