<svg width="23" height="48" viewBox="0 0 23 48" fill="none" xmlns="http://www.w3.org/2000/svg">
<path d="M11.0362 0C7.63254 0 4.85279 2.77975 4.85279 6.18339V28.5493C2.14161 30.6182 0.00498929 33.4814 0 36.9438V36.9638C0 43.048 4.95197 48 11.0362 48C17.1204 48 22.0919 43.048 22.0919 36.9638V36.9438C22.0869 33.481 19.9313 30.6181 17.2196 28.5493V6.18339C17.2196 2.77975 14.4398 0 11.0362 0ZM11.0362 2.64164C13.0171 2.64164 14.5779 4.20242 14.5779 6.18339V29.3124L15.2433 29.7037C17.8385 31.202 19.4264 33.9666 19.4308 36.9633C19.4308 41.6149 15.6878 45.3578 11.0362 45.3578C6.38459 45.3578 2.64168 41.6149 2.64168 36.9633C2.64599 33.9666 4.2535 31.202 6.84873 29.7037L7.51407 29.3124V6.18339C7.51407 4.20242 9.05527 2.64164 11.0363 2.64164H11.0362Z" fill="white"/>
<path d="M12.3668 35.2933L12.3668 15.4129C12.3668 14.6809 11.7734 14.0875 11.0414 14.0875C10.3094 14.0875 9.71599 14.6809 9.71599 15.4129L9.71599 35.2933C9.71599 36.0253 10.3094 36.6186 11.0414 36.6186C11.7734 36.6186 12.3668 36.0253 12.3668 35.2933Z" fill="white"/>
<path d="M11.0413 42.8194C14.2234 42.8194 16.803 40.2398 16.803 37.0577C16.803 33.8756 14.2234 31.296 11.0413 31.296C7.85921 31.296 5.2796 33.8756 5.2796 37.0577C5.2796 40.2398 7.85921 42.8194 11.0413 42.8194Z" fill="white"/>
</svg>
