<svg width="46" height="48" viewBox="0 0 46 48" fill="none" xmlns="http://www.w3.org/2000/svg">
<path d="M17.0391 4.26876V43.7312C17.0391 44.3269 16.8025 44.8982 16.3813 45.3193C15.9601 45.7405 15.3888 45.9772 14.7932 45.9772C14.1975 45.9772 13.6263 45.7405 13.2051 45.3193C12.7839 44.8982 12.5473 44.3269 12.5473 43.7312V4.26876C12.5473 3.67311 12.7839 3.10184 13.2051 2.68065C13.6263 2.25946 14.1975 2.02283 14.7932 2.02283C15.3888 2.02283 15.9601 2.25946 16.3813 2.68065C16.8025 3.10184 17.0391 3.67311 17.0391 4.26876ZM27.3404 7.68857C26.7448 7.68857 26.1735 7.92519 25.7523 8.34638C25.3311 8.76758 25.0945 9.33884 25.0945 9.9345V38.0655C25.0945 38.6612 25.3311 39.2324 25.7523 39.6536C26.1735 40.0748 26.7448 40.3114 27.3404 40.3114C27.9361 40.3114 28.5074 40.0748 28.9286 39.6536C29.3497 39.2324 29.5864 38.6612 29.5864 38.0655V9.9345C29.5864 9.33884 29.3497 8.76758 28.9286 8.34638C28.5074 7.92519 27.9361 7.68857 27.3404 7.68857ZM2.24593 8.90286C1.65027 8.90286 1.07901 9.13949 0.657817 9.56068C0.236624 9.98188 0 10.5531 0 11.1488V36.8512C1.7752e-08 37.4469 0.236624 38.0181 0.657817 38.4393C1.07901 38.8605 1.65027 39.0971 2.24593 39.0971C2.84159 39.0971 3.41285 38.8605 3.83404 38.4393C4.25523 38.0181 4.49186 37.4469 4.49186 36.8512V11.1488C4.49186 10.5531 4.25523 9.98188 3.83404 9.56068C3.41285 9.13949 2.84159 8.90286 2.24593 8.90286ZM64.9822 6.48175C64.3866 6.48175 63.8153 6.71838 63.3941 7.13957C62.9729 7.56076 62.7363 8.13202 62.7363 8.72768V39.2873C62.7363 39.8829 62.9729 40.4542 63.3941 40.8754C63.8153 41.2966 64.3866 41.5332 64.9822 41.5332C65.5779 41.5332 66.1491 41.2966 66.5703 40.8754C66.9915 40.4542 67.2281 39.8829 67.2281 39.2873V8.72768C67.2281 8.13202 66.9915 7.56076 66.5703 7.13957C66.1491 6.71838 65.5779 6.48175 64.9822 6.48175ZM52.435 0.0074866C51.8393 0.0074866 51.268 0.244112 50.8468 0.665305C50.4257 1.0865 50.189 1.65776 50.189 2.25342V45.7541C50.189 46.3497 50.4257 46.921 50.8468 47.3422C51.268 47.7634 51.8393 48 52.435 48C53.0306 48 53.6019 47.7634 54.0231 47.3422C54.4443 46.921 54.6809 46.3497 54.6809 45.7541V2.24593C54.6809 1.65027 54.4443 1.07901 54.0231 0.657817C53.6019 0.236624 53.0306 0 52.435 0V0.0074866ZM39.8877 12.5547C39.292 12.5547 38.7208 12.7914 38.2996 13.2126C37.8784 13.6338 37.6418 14.205 37.6418 14.8007V33.2173C37.6418 33.8129 37.8784 34.3842 38.2996 34.8054C38.7208 35.2266 39.292 35.4632 39.8877 35.4632C40.4834 35.4632 41.0546 35.2266 41.4758 34.8054C41.897 34.3842 42.1336 33.8129 42.1336 33.2173V14.8007C42.1346 14.5051 42.0773 14.2122 41.9648 13.9389C41.8524 13.6655 41.6871 13.4171 41.4785 13.2077C41.2698 12.9984 41.0219 12.8323 40.7489 12.7189C40.4759 12.6056 40.1833 12.5473 39.8877 12.5473V12.5547Z" fill="white"/>
</svg>
